<svg width="200" height="41" viewBox="0 0 200 41" fill="none" xmlns="http://www.w3.org/2000/svg">
<g clip-path="url(#clip0_4416_77)">
<path d="M2.02708 24.9915C2.65415 25.366 3.30462 25.6867 3.97264 25.983C12.0591 29.5732 20.3794 27.02 24.5911 20.4157C26.8947 16.8033 27.9242 11.8367 31.8516 9.50851C33.1619 8.73168 34.6722 8.32227 36.1954 8.32227C38.678 8.32227 40.9067 9.37905 42.4626 11.0703C42.2638 28.5199 29.197 36.8645 24.2097 39.6371C22.8479 40.3941 21.2194 40.5142 19.7652 39.9543C18.6012 39.5065 17.4617 38.9955 16.3468 38.438C14.916 37.7218 13.5261 36.9251 12.1901 36.0469C10.6786 35.0519 9.23489 33.9496 7.89651 32.7307C6.4739 31.4348 5.17062 30.0036 4.05336 28.4359C3.27888 27.3489 2.59565 26.1965 2.02591 24.9904" fill="#18137B"/>
<path d="M0.0162712 16.8489C0.0455189 17.4788 0.114543 18.104 0.188248 18.6919C0.376603 20.1965 0.736935 21.679 1.24702 23.1079C1.47515 23.7483 1.73604 24.377 2.02734 24.9906C2.65441 25.3649 3.30488 25.6857 3.9729 25.982C12.0593 29.5722 20.3797 27.0189 24.5914 20.4146C26.8949 16.8022 27.9244 11.8356 31.8518 9.50748C33.1621 8.73065 34.6724 8.32122 36.1957 8.32122C38.6783 8.32122 40.9069 9.378 42.4629 11.0693C42.4699 10.4184 42.4594 9.75475 42.4302 9.07823C42.4302 9.07823 42.4172 8.3119 42.2103 7.12914C41.5153 3.15049 38.153 0.122474 34.1028 0.00349926C34.0173 0.00116642 33.9319 0 33.8465 0C33.7693 0 33.6921 0 33.6161 0.00349926C31.2809 0.0956463 29.037 0.879479 27.1745 2.29085C24.4686 4.34141 22.9535 7.28195 21.8198 10.3975C20.8653 13.0208 19.7339 15.3139 17.5802 17.1767C15.6439 18.8517 13.1847 19.954 10.639 20.277V20.2805C10.1032 20.347 9.55688 20.3808 9.00117 20.3808C5.54526 20.3808 2.36193 19.0219 0.0139313 16.8477L0.0162712 16.8489Z" fill="#332ADE"/>
<path d="M21.8198 10.3975C20.8651 13.0208 19.7339 15.314 17.58 17.1767C15.6439 18.8517 13.1847 19.954 10.639 20.2771V20.2805C10.1032 20.3471 9.55683 20.3809 9.00113 20.3809C5.54522 20.3809 2.3619 19.022 0.0138852 16.8478C-0.0247218 15.9987 0.0103755 15.1425 0.21043 14.3575C0.362518 13.7603 0.662015 13.2168 1.11711 12.7969C1.82607 12.1413 2.79008 11.775 3.75643 11.796C4.8269 11.8194 5.66689 12.4423 6.54198 12.9823C7.1012 13.3276 7.70486 13.6192 8.31791 13.8582C9.6282 14.3692 11.0321 14.6281 12.4384 14.6281C16.7354 14.6281 20.5902 12.2148 22.4878 8.67236" fill="#9995EF"/>
<path d="M58.0712 26.8567C58.1847 27.805 58.621 28.5165 59.3791 28.9901C60.1384 29.4648 61.1059 29.7016 62.284 29.7016C63.3031 29.7016 64.1126 29.4986 64.7128 29.0915C65.313 28.6845 65.6136 28.1433 65.6136 27.4656C65.6136 26.4717 64.8544 25.8057 63.337 25.4674L59.6681 24.7222C56.6111 24.0444 55.0821 22.5211 55.0821 20.1497C55.0821 18.5692 55.6881 17.2874 56.9001 16.3053C58.1122 15.3232 59.7255 14.832 61.7412 14.832C63.6435 14.832 65.2229 15.2777 66.4805 16.17C67.7382 17.0622 68.5243 18.2299 68.8414 19.6751L65.4779 20.3866C65.3422 19.5514 64.9339 18.8854 64.2554 18.3885C63.5768 17.8916 62.704 17.6432 61.6395 17.6432C60.666 17.6432 59.9244 17.8519 59.4142 18.2695C58.9041 18.6871 58.6503 19.212 58.6503 19.8442C58.6503 20.7925 59.33 21.4247 60.6883 21.7407L64.6964 22.6214C66.0781 22.9153 67.1532 23.4508 67.9242 24.2299C68.694 25.0091 69.0789 25.9854 69.0789 27.16C69.0789 28.8758 68.4331 30.2078 67.1427 31.1561C65.8523 32.1044 64.1302 32.5791 61.9787 32.5791C59.9852 32.5791 58.2982 32.1557 56.9165 31.3089C55.5349 30.4621 54.7428 29.2257 54.5381 27.6009L58.0712 26.8555V26.8567Z" fill="#18137B"/>
<path d="M88.2032 32.107H84.67V30.1766C83.1305 31.7792 81.0913 32.5818 78.5549 32.5818C76.2678 32.5818 74.3035 31.7524 72.6609 30.0926C71.0184 28.4328 70.1983 26.3053 70.1983 23.7077C70.1983 21.1101 71.0254 19.0105 72.6785 17.3402C74.3315 15.6699 76.2912 14.8335 78.5549 14.8335C81.0913 14.8335 83.1292 15.6349 84.67 17.2387V15.3083H88.2032V32.1082V32.107ZM83.0052 27.8566C84.1155 26.7835 84.67 25.4013 84.67 23.7077C84.67 22.014 84.1155 20.6307 83.0052 19.5587C81.895 18.4855 80.6046 17.9502 79.1329 17.9502C77.5476 17.9502 76.2338 18.4751 75.1925 19.5248C74.1514 20.5747 73.6296 21.9697 73.6296 23.7077C73.6296 25.4457 74.1502 26.8406 75.1925 27.8904C76.2349 28.9402 77.5476 29.4651 79.1329 29.4651C80.6046 29.4651 81.8962 28.9286 83.0052 27.8566Z" fill="#18137B"/>
<path d="M92.2117 32.1065V7.72021H95.7448V32.1065H92.2117Z" fill="#18137B"/>
<path d="M115.447 24.5543H101.791C101.949 26.0671 102.515 27.2756 103.489 28.1783C104.462 29.0811 105.596 29.5337 106.886 29.5337C109.22 29.5337 110.873 28.5633 111.848 26.6211L115.006 27.2989C114.326 29.038 113.279 30.3526 111.863 31.2449C110.448 32.1372 108.789 32.5827 106.886 32.5827C104.532 32.5827 102.51 31.7581 100.823 30.1099C99.1363 28.4618 98.2927 26.3389 98.2927 23.7424C98.2927 21.1461 99.1363 18.9835 100.823 17.3237C102.51 15.6638 104.577 14.8345 107.023 14.8345C109.309 14.8345 111.263 15.63 112.882 17.2221C114.502 18.8143 115.357 20.8521 115.447 23.3354V24.5543ZM103.761 19.0336C102.764 19.7556 102.142 20.7611 101.893 22.0476H111.812C111.541 20.7156 110.975 19.6996 110.113 18.9998C109.252 18.2999 108.223 17.9501 107.023 17.9501C105.822 17.9501 104.757 18.3116 103.761 19.0336Z" fill="#18137B"/>
<path d="M120.101 26.8567C120.215 27.805 120.651 28.5165 121.408 28.9901C122.168 29.4648 123.135 29.7016 124.313 29.7016C125.332 29.7016 126.142 29.4986 126.743 29.0915C127.343 28.6845 127.643 28.1433 127.643 27.4656C127.643 26.4717 126.884 25.8057 125.367 25.4674L121.698 24.7222C118.641 24.0444 117.111 22.5211 117.111 20.1497C117.111 18.5692 117.718 17.2874 118.929 16.3053C120.142 15.3232 121.755 14.832 123.771 14.832C125.673 14.832 127.252 15.2777 128.51 16.17C129.768 17.0622 130.554 18.2299 130.871 19.6751L127.507 20.3866C127.372 19.5514 126.963 18.8854 126.284 18.3885C125.606 17.8916 124.733 17.6432 123.669 17.6432C122.696 17.6432 121.954 17.8519 121.444 18.2695C120.933 18.6871 120.68 19.212 120.68 19.8442C120.68 20.7925 121.359 21.4247 122.718 21.7407L126.726 22.6214C128.107 22.9153 129.182 23.4508 129.954 24.2299C130.724 25.0091 131.108 25.9854 131.108 27.16C131.108 28.8758 130.462 30.2078 129.172 31.1561C127.882 32.1044 126.159 32.5791 124.008 32.5791C122.015 32.5791 120.328 32.1557 118.946 31.3089C117.565 30.4621 116.772 29.2257 116.568 27.6009L120.101 26.8555V26.8567Z" fill="#18137B"/>
<path d="M144.118 31.226C142.85 32.1065 141.558 32.5474 140.246 32.5474C138.547 32.5474 137.199 32.0564 136.203 31.0743C135.208 30.0922 134.708 28.6983 134.708 26.8915V17.5777H131.073V15.4105H134.708V10.0928H137.324V15.4105H143.303V17.5777H137.324V26.7224C137.324 27.7839 137.601 28.6131 138.156 29.2115C138.71 29.8099 139.464 30.1085 140.416 30.1085C141.367 30.1085 142.318 29.7703 143.269 29.0925L144.118 31.226Z" fill="#18137B"/>
<path d="M148.925 9.14332C149.276 9.48158 149.451 9.88866 149.451 10.3622C149.451 10.8358 149.282 11.2709 148.942 11.5986C148.602 11.9264 148.172 12.0896 147.651 12.0896C147.13 12.0896 146.733 11.9264 146.395 11.5986C146.055 11.2709 145.884 10.8591 145.884 10.3622C145.884 9.86533 146.054 9.48158 146.395 9.14332C146.733 8.80505 147.154 8.63477 147.651 8.63477C148.148 8.63477 148.574 8.8039 148.925 9.14332ZM146.36 32.1066V15.4093H148.976V32.1066H146.36Z" fill="#18137B"/>
<path d="M178.65 16.7475C179.839 17.9104 180.433 19.4291 180.433 21.3035V32.108H177.851V21.7444C177.851 20.4345 177.449 19.3788 176.645 18.5775C175.842 17.7762 174.805 17.375 173.536 17.375C171.974 17.375 170.729 17.9221 169.8 19.0173C168.871 20.1125 168.406 21.6312 168.406 23.5733V32.108H165.825V21.7444C165.825 20.4345 165.422 19.3788 164.619 18.5775C163.815 17.7762 162.79 17.375 161.544 17.375C159.981 17.375 158.741 17.9221 157.824 19.0173C156.906 20.1125 156.448 21.6312 156.448 23.5733V32.108H153.866V15.4096H156.448V17.95C157.716 15.9858 159.619 15.0036 162.154 15.0036C163.445 15.0036 164.595 15.3023 165.602 15.9007C166.609 16.4989 167.364 17.3283 167.861 18.3898C169.266 16.1315 171.371 15.0024 174.18 15.0024C175.969 15.0024 177.458 15.5834 178.647 16.7463L178.65 16.7475Z" fill="#18137B"/>
<path d="M200 24.2837H185.63C185.744 26.0904 186.39 27.5403 187.567 28.6356C188.743 29.7308 190.091 30.2779 191.608 30.2779C194.348 30.2779 196.25 29.0811 197.315 26.6877L199.626 27.23C198.97 28.9458 197.945 30.2616 196.551 31.176C195.157 32.0905 193.51 32.5477 191.608 32.5477C189.298 32.5477 187.305 31.7348 185.629 30.1087C183.952 28.4828 183.115 26.3832 183.115 23.8089C183.115 21.2347 183.965 19.0954 185.662 17.4578C187.361 15.8201 189.4 15.0024 191.778 15.0024C194.156 15.0024 195.985 15.7758 197.536 17.3225C199.087 18.8692 199.908 20.873 199.999 23.3342V24.2825L200 24.2837ZM187.855 18.6441C186.689 19.5585 185.981 20.7949 185.732 22.3532H197.384C197.157 20.7494 196.523 19.5026 195.482 18.6102C194.44 17.7179 193.205 17.2724 191.779 17.2724C190.353 17.2724 189.022 17.7296 187.855 18.6441Z" fill="#18137B"/>
</g>
<defs>
<clipPath id="clip0_4416_77">
<rect width="200" height="41" fill="white"/>
</clipPath>
</defs>
</svg>
