<svg preserveAspectRatio="none" width="100%" height="100%" overflow="visible" style="display: block;" viewBox="0 0 24 22" fill="none" xmlns="http://www.w3.org/2000/svg">
<g id="icon">
<path id="Vector" d="M1.14557 13.642C1.49997 13.8464 1.8676 14.0215 2.24514 14.1832C6.81536 16.1429 11.5178 14.7492 13.8981 11.1442C15.2 9.17232 15.7819 6.46125 18.0015 5.19037C18.742 4.76633 19.5956 4.54284 20.4565 4.54284C21.8596 4.54284 23.1192 5.1197 23.9985 6.04291C23.8862 15.568 16.5012 20.123 13.6825 21.6365C12.9129 22.0496 11.9925 22.1152 11.1706 21.8096C10.5128 21.5651 9.86875 21.2862 9.23865 20.9819C8.42998 20.5909 7.64446 20.1561 6.88942 19.6767C6.03513 19.1335 5.21921 18.5318 4.4628 17.8665C3.65878 17.1591 2.9222 16.3779 2.29076 15.5221C1.85305 14.9288 1.46691 14.2997 1.14491 13.6413" fill="var(--fill-0, #18137B)"/>
<path id="Vector_2" d="M0.00923111 9.19718C0.0257611 9.54103 0.0647715 9.88231 0.106427 10.2032C0.21288 11.0245 0.416529 11.8338 0.704812 12.6137C0.833748 12.9633 0.981193 13.3065 1.14583 13.6414C1.50023 13.8458 1.86786 14.0208 2.2454 14.1826C6.81561 16.1424 11.5181 14.7486 13.8984 11.1436C15.2003 9.1717 15.7821 6.46064 18.0017 5.18978C18.7423 4.76573 19.5959 4.54224 20.4568 4.54224C21.8599 4.54224 23.1194 5.1191 23.9988 6.0423C24.0028 5.68704 23.9969 5.32475 23.9803 4.95547C23.9803 4.95547 23.973 4.53715 23.856 3.89153C23.4632 1.71974 21.563 0.0668542 19.2739 0.00191011C19.2256 0.000636704 19.1774 0 19.1291 0C19.0855 0 19.0418 0 18.9989 0.00191011C17.6791 0.0522097 16.4109 0.480075 15.3583 1.25049C13.829 2.36981 12.9727 3.97494 12.332 5.67558C11.7925 7.10754 11.1531 8.35929 9.93582 9.37611C8.84151 10.2904 7.45166 10.8921 6.01289 11.0685V11.0704C5.71008 11.1067 5.4013 11.1251 5.08723 11.1251C3.13405 11.1251 1.33493 10.3833 0.00790867 9.19655L0.00923111 9.19718Z" fill="var(--fill-0, #332ADE)"/>
<path id="Vector_3" d="M12.3319 5.67565C11.7923 7.10761 11.153 8.35936 9.93569 9.37618C8.84143 10.2905 7.45159 10.8922 6.01281 11.0685V11.0704C5.70999 11.1068 5.40121 11.1252 5.08714 11.1252C3.13396 11.1252 1.33484 10.3835 0.00781732 9.19662C-0.0140022 8.73311 0.00583375 8.26577 0.118899 7.83727C0.204854 7.51126 0.374121 7.21458 0.63133 6.98538C1.03201 6.62752 1.57684 6.42759 2.12299 6.43907C2.72799 6.45181 3.20273 6.79182 3.6973 7.08661C4.01336 7.27506 4.35453 7.43425 4.70101 7.56474C5.44154 7.84364 6.235 7.98498 7.02977 7.98498C9.45835 7.98498 11.637 6.66764 12.7094 4.73397" fill="var(--fill-0, #9995EF)"/>
</g>
</svg>
