<svg preserveAspectRatio="none" width="100%" height="100%" overflow="visible" style="display: block;" viewBox="0 0 790 753" fill="none" xmlns="http://www.w3.org/2000/svg">
<path id="Vector" opacity="0.05" d="M789.362 175.055C788.819 162.679 787.404 150.357 785.126 138.181C771.572 60.364 705.58 2.2663 628.237 0C625.103 0 622.096 0 618.686 0C574.296 1.58108 531.478 16.8341 496.085 43.6738C452.839 76.5669 426.663 121.046 408.873 162.093C375.962 224.66 308.636 265.58 235.783 265.58C211.582 265.628 187.588 261.13 165.047 252.321C154.473 248.23 144.288 243.197 134.614 237.283L128.832 233.64C114.008 224.279 98.7592 214.578 78.8516 214.154C58.4283 213.818 38.6559 221.34 23.6187 235.165C14.0411 244.219 7.2826 255.847 4.15584 268.651C-2.66356 295.445 0.237864 325.351 3.47814 351.255C7.05011 379.363 13.6538 407.002 23.1739 433.689C35.9251 469.036 53.477 502.461 75.336 533.024C96.1504 562.011 119.975 588.713 146.41 612.683C171.114 635.121 197.533 655.595 225.426 673.916C249.958 690.079 275.415 704.789 301.668 717.971C322.847 728.561 344.025 737.986 364.483 745.908C378.938 751.502 394.451 753.834 409.912 752.736C425.373 751.637 440.4 747.136 453.919 739.554C538.166 692.555 608.372 634.838 662.567 567.993C753.232 456.5 795.821 324.292 789.362 175.055ZM21.3738 311.542C20.7907 298.892 21.9379 286.222 24.7835 273.883C26.9015 265.027 31.5351 256.973 38.1258 250.69C49.1068 240.572 63.5628 235.073 78.4916 235.335C92.5116 235.631 104.71 243.362 117.608 251.538C119.599 252.787 121.589 254.058 123.58 255.287C134.347 261.882 145.688 267.49 157.465 272.04C182.427 281.845 209.007 286.874 235.825 286.866C289.641 286.736 341.531 266.819 381.616 230.908C368.168 260.793 350.209 289.98 321.936 314.528C288.028 343.802 246.291 362.504 201.876 368.326L198.17 368.834C190.003 369.706 181.796 370.145 173.582 370.148C117.311 370.295 63.0184 349.39 21.3738 311.542ZM23.6822 340.982C66.8007 373.745 119.494 391.42 173.646 391.286C183.996 391.277 194.335 390.64 204.608 389.379L215.07 388.003V387.727C259.733 379.911 301.446 360.15 335.786 330.54C378.757 293.242 399.512 247.238 415.544 203.056C419.229 192.911 423.338 182.193 428.081 171.285C431.103 165.44 433.863 159.431 436.362 153.261C452.648 120.071 475.267 86.3099 508.919 60.7028C540.821 36.5229 579.404 22.773 619.406 21.3286C622.138 21.3286 624.891 21.3286 627.644 21.3286C694.97 23.2984 752.448 74.0253 764.287 142.057C766.338 153.208 767.611 164.489 768.099 175.818V176.093C768.247 179.842 768.353 183.528 768.459 187.234C742.325 166.386 710.465 153.986 677.115 151.682C643.765 149.378 610.503 157.279 581.751 174.335C530.33 204.92 505.34 258.209 481.154 309.741C470.078 333.357 459.616 355.66 446.803 375.824C371.705 493.947 223.648 533.872 86.7723 472.915C76.1319 468.277 65.7405 463.088 55.6402 457.368C51.0022 447.308 46.7665 437.12 43.1027 426.826C34.0919 401.595 27.8431 375.461 24.4658 348.882C24.2117 346.129 23.9787 343.566 23.6822 340.982ZM443.796 721.021C432.99 727.086 420.98 730.691 408.622 731.581C396.263 732.471 383.86 730.622 372.298 726.168C352.411 718.479 331.911 709.351 311.368 699.036C285.844 686.23 261.093 671.937 237.244 656.23C210.276 638.528 184.735 618.741 160.854 597.052C135.521 574.12 112.697 548.56 92.7658 520.803C85.4804 510.566 78.7599 500.124 72.604 489.478C74.4677 490.325 76.3526 491.193 78.3222 492.062C124.025 512.416 170.829 522.688 216.786 522.688C244.386 522.716 271.859 518.939 298.428 511.463C367.305 491.85 426.519 447.503 464.72 386.922C478.253 365.636 489.498 341.66 500.384 318.489C523.193 269.774 546.786 219.534 592.616 192.296C620.307 175.856 652.724 169.214 684.649 173.44C716.573 177.666 746.147 192.515 768.607 215.595C763.334 499.475 565.168 653.307 443.796 721.021Z" fill="url(#paint0_linear_0_4)"/>
<defs>
<linearGradient id="paint0_linear_0_4" x1="395" y1="0" x2="395" y2="753" gradientUnits="userSpaceOnUse">
<stop stop-color="#18137B"/>
<stop offset="1" stop-color="#18137B" stop-opacity="0"/>
</linearGradient>
</defs>
</svg>
