<svg preserveAspectRatio="none" width="100%" height="100%" overflow="visible" style="display: block;" viewBox="0 0 1290 1218" fill="none" xmlns="http://www.w3.org/2000/svg">
<g id="Frame 1321317941">
<path id="Vector" opacity="0.05" d="M1276.97 283.157C1276.09 263.139 1273.8 243.207 1270.12 223.511C1248.19 97.6405 1141.43 3.6658 1016.31 0C1011.24 0 1006.38 0 1000.86 0C929.052 2.55745 859.784 27.2296 802.527 70.6437C732.567 123.849 690.221 195.795 661.442 262.19C608.201 363.394 499.287 429.584 381.431 429.584C342.281 429.66 303.465 422.386 267 408.137C249.895 401.519 233.418 393.378 217.768 383.813L208.415 377.92C184.432 362.777 159.765 347.086 127.56 346.401C94.5207 345.857 62.5345 358.024 38.2085 380.387C22.7146 395.032 11.7812 413.841 6.723 434.552C-4.3089 477.89 0.384797 526.265 5.62666 568.165C11.4051 613.631 22.0881 658.338 37.489 701.504C58.1168 758.679 86.5108 812.745 121.873 862.183C155.545 909.07 194.085 952.261 236.851 991.034C276.815 1027.33 319.554 1060.44 364.677 1090.08C404.362 1116.22 445.545 1140.02 488.015 1161.34C522.276 1178.47 556.536 1193.71 589.632 1206.53C613.017 1215.58 638.112 1219.35 663.123 1217.57C688.134 1215.8 712.444 1208.51 734.314 1196.25C870.603 1120.23 984.177 1026.87 1071.85 918.746C1218.52 738.402 1287.42 524.552 1276.97 283.157ZM34.5768 503.928C33.6336 483.467 35.4894 462.973 40.0928 443.014C43.5191 428.689 51.0149 415.661 61.6769 405.499C79.4411 389.133 102.827 380.238 126.978 380.661C149.658 381.14 169.392 393.645 190.257 406.87C193.477 408.891 196.698 410.947 199.918 412.934C217.335 423.602 235.683 432.673 254.735 440.033C295.116 455.893 338.116 464.028 381.499 464.015C468.559 463.804 552.502 431.588 617.349 373.501C595.593 421.841 566.54 469.051 520.803 508.758C465.949 556.11 398.43 586.361 326.58 595.778L320.584 596.601C307.372 598.011 294.095 598.72 280.807 598.725C189.776 598.963 101.946 565.149 34.5768 503.928ZM38.3112 551.549C108.065 604.543 193.308 633.134 280.91 632.916C297.654 632.902 314.381 631.873 330.999 629.833L347.924 627.606V627.16C420.175 614.517 487.656 582.553 543.209 534.659C612.724 474.327 646.299 399.915 672.234 328.449C678.196 312.038 684.842 294.703 692.517 277.059C697.404 267.603 701.87 257.885 705.912 247.904C732.259 194.219 768.849 139.609 823.289 98.1886C874.897 59.0768 937.314 36.8361 1002.03 34.4997C1006.45 34.4997 1010.9 34.4997 1015.35 34.4997C1124.27 37.6858 1217.25 119.738 1236.4 229.781C1239.72 247.819 1241.78 266.067 1242.57 284.391V284.836C1242.81 290.9 1242.98 296.861 1243.15 302.857C1200.87 269.134 1149.34 249.077 1095.38 245.35C1041.43 241.623 987.624 254.404 941.111 281.993C857.927 331.464 817.499 417.661 778.374 501.016C760.455 539.215 743.531 575.291 722.803 607.906C601.315 798.973 361.799 863.553 140.373 764.953C123.16 757.452 106.35 749.058 90.0104 739.807C82.5073 723.533 75.6552 707.054 69.7282 690.404C55.1512 649.592 45.0424 607.319 39.5789 564.328C39.1678 559.874 38.7909 555.729 38.3112 551.549ZM717.938 1166.27C700.458 1176.08 681.029 1181.91 661.036 1183.35C641.043 1184.79 620.979 1181.8 602.274 1174.6C570.104 1162.16 536.939 1147.4 503.707 1130.71C462.415 1110 422.376 1086.88 383.795 1061.47C340.168 1032.84 298.849 1000.83 260.217 965.75C219.235 928.656 182.312 887.312 150.069 842.415C138.284 825.856 127.412 808.966 117.453 791.744C120.468 793.115 123.517 794.519 126.703 795.924C200.638 828.848 276.354 845.464 350.699 845.464C395.349 845.509 439.792 839.399 482.773 827.306C594.197 795.582 689.989 723.849 751.787 625.858C773.68 591.427 791.872 552.645 809.482 515.165C846.381 436.367 884.547 355.103 958.687 311.045C1003.48 284.452 1055.93 273.708 1107.57 280.544C1159.22 287.38 1207.06 311.398 1243.39 348.731C1234.86 807.915 914.285 1056.74 717.938 1166.27Z" fill="url(#paint0_linear_0_21)"/>
</g>
<defs>
<linearGradient id="paint0_linear_0_21" x1="639" y1="0" x2="639" y2="835.365" gradientUnits="userSpaceOnUse">
<stop stop-color="white"/>
<stop offset="1" stop-color="white" stop-opacity="0"/>
</linearGradient>
</defs>
</svg>
