<svg overflow="visible" style="display: block;" viewBox="0 0 128.431 40" fill="none" xmlns="http://www.w3.org/2000/svg">
<g id="ezdevs 1">
<path id="Vector" d="M35.2563 16.7991L35.5678 14.9824C35.6675 14.4061 36.1659 13.9801 36.7516 13.9801H40.3151H44.29C45.2618 13.9801 45.8349 15.0952 45.2494 15.8845L38.1594 25.632C38.0475 25.7824 37.8729 25.87 37.6861 25.87H35.1192C34.3716 25.87 33.811 25.1935 33.9355 24.4543L34.3343 22.1239C34.4339 21.5476 34.9324 21.1216 35.518 21.1216H38.4212C39.0069 21.1216 39.5053 20.6957 39.6049 20.1192L39.6922 19.618C39.8167 18.8789 39.2561 18.2024 38.5084 18.2024H36.44C35.6924 18.2149 35.1192 17.5383 35.2563 16.7991ZM34.0726 10.9731C33.4869 10.9731 32.9886 11.3991 32.8888 11.9755L30.2224 27.4737C30.0978 28.2129 30.6584 28.8896 31.4061 28.8896H39.0816H48.7133C49.299 28.8896 49.7849 28.4761 49.8845 27.8998L49.9843 27.2984C50.1088 26.5592 49.548 25.8951 48.8129 25.8951H44.7135C43.7418 25.8951 43.181 24.78 43.7418 23.9908L50.4327 14.6817C50.8939 14.0427 51.7286 13.1532 51.5043 12.2386C51.2553 11.2112 50.52 10.9856 49.9343 10.9856H41.9225H34.0726V10.9731Z" fill="var(--fill-0, #B0B0B0)"/>
<path id="Vector_2" d="M52.0153 28.5261C51.7163 28.2004 51.5667 27.812 51.5667 27.361C51.5667 26.91 51.7163 26.5216 52.0153 26.1959C52.3143 25.87 52.688 25.7071 53.1492 25.7071C53.5728 25.7071 53.9341 25.87 54.2457 26.1959C54.5571 26.5216 54.7067 26.91 54.7067 27.361C54.7067 27.7994 54.5571 28.1878 54.2457 28.5137C53.9341 28.852 53.5728 29.0147 53.1492 29.0147C52.7006 29.0147 52.3143 28.852 52.0153 28.5261Z" fill="var(--fill-0, #B0B0B0)"/>
<path id="Vector_3" d="M55.691 24.1033V22.1114C55.691 20.7708 56.1147 19.6055 56.962 18.6408C57.8092 17.6636 58.8184 17.1875 59.9898 17.1875C60.7 17.1875 61.3231 17.3629 61.8588 17.7262C62.3945 18.0895 62.8182 18.528 63.1049 19.0543V14.832C63.1049 14.5438 63.2543 14.3058 63.5533 14.1304C63.8525 13.955 64.2263 13.8673 64.6749 13.8673C65.1233 13.8673 65.4973 13.955 65.7837 14.1304C66.0704 14.3058 66.2198 14.5438 66.2198 14.832V27.8747C66.2198 28.1379 66.0704 28.3633 65.7714 28.5637C65.4723 28.7643 65.111 28.8645 64.6749 28.8645C64.301 28.8645 63.9771 28.7518 63.6904 28.5386C63.4039 28.3257 63.2669 28.1002 63.2669 27.8496V27.1355C63.0051 27.6618 62.569 28.1128 61.9461 28.5012C61.3231 28.8896 60.6502 29.0775 59.9025 29.0775C58.7937 29.0775 57.8092 28.5763 56.9494 27.5739C56.127 26.5716 55.691 25.419 55.691 24.1033ZM58.8184 24.091C58.8184 24.6547 59.0304 25.1684 59.4416 25.6194C59.8651 26.0704 60.3512 26.3086 60.9118 26.3086C61.4725 26.3086 61.9833 26.083 62.432 25.6445C62.8806 25.2059 63.1049 24.8302 63.1049 24.5294V22.1114C63.1049 21.4724 62.8806 20.9461 62.4445 20.5453C61.9959 20.1443 61.4974 19.9439 60.9369 19.9439C60.3512 19.9439 59.8527 20.1694 59.4416 20.6079C59.0178 21.0463 58.8184 21.5475 58.8184 22.1114V24.091Z" fill="var(--fill-0, #B0B0B0)"/>
<path id="Vector_4" d="M67.6278 24.1035V22.0361C67.6278 20.708 68.1388 19.5679 69.1729 18.6157C70.2071 17.6635 71.4531 17.1875 72.9233 17.1875C74.2943 17.1875 75.4655 17.626 76.4373 18.4905C77.4092 19.355 77.8949 20.4575 77.8949 21.7731C77.8949 22.2492 77.8329 22.65 77.708 22.9633C77.5837 23.2765 77.3969 23.502 77.1476 23.6273C76.8984 23.7526 76.6739 23.8404 76.462 23.8655C76.2504 23.9029 75.9763 23.9155 75.64 23.9155H70.7304V24.2788C70.7304 24.9804 70.9922 25.5443 71.5029 25.9702C72.0139 26.3963 72.6994 26.6092 73.559 26.6092C74.1694 26.6092 74.7798 26.4588 75.3655 26.1457C75.9635 25.8324 76.35 25.6822 76.5243 25.6822C76.8608 25.6822 77.1476 25.8449 77.3716 26.1582C77.5961 26.4714 77.708 26.7722 77.708 27.0727C77.708 27.5239 77.2969 27.9749 76.4873 28.4259C75.6771 28.8771 74.6678 29.09 73.4594 29.09C71.7398 29.09 70.3318 28.639 69.2476 27.7118C68.1761 26.7971 67.6278 25.5943 67.6278 24.1035ZM70.7555 22.0612H74.2814C74.5435 22.0612 74.7178 22.0235 74.8298 21.9359C74.9294 21.8482 74.992 21.6853 74.992 21.4473C74.992 20.921 74.7927 20.4826 74.3814 20.1569C73.9702 19.8184 73.4718 19.6557 72.8737 19.6557C72.3129 19.6557 71.8145 19.8184 71.4033 20.1443C70.9796 20.47 70.7804 20.8961 70.7804 21.4222V22.0612H70.7555Z" fill="var(--fill-0, #B0B0B0)"/>
<path id="Vector_5" d="M78.0945 18.5155C78.0945 18.1773 78.3314 17.864 78.8045 17.5884C79.2782 17.3127 79.739 17.1749 80.1755 17.1749C80.6363 17.1749 80.948 17.3504 81.0976 17.7137L83.7761 24.7549L86.4551 17.7513C86.6047 17.3629 86.9039 17.1624 87.3524 17.1624C87.7388 17.1624 88.1873 17.3002 88.6857 17.5884C89.1841 17.8766 89.4333 18.1898 89.4333 18.528C89.4333 18.6784 89.3957 18.8162 89.3337 18.9415L85.1967 28.5637C85.0222 28.9396 84.549 29.1276 83.7761 29.1276C83.0037 29.1276 82.5304 28.9396 82.3684 28.5637L78.2065 18.9415C78.1318 18.8413 78.0945 18.691 78.0945 18.5155Z" fill="var(--fill-0, #B0B0B0)"/>
<path id="Vector_6" d="M89.458 26.9976C89.458 26.7094 89.5706 26.3963 89.7822 26.0829C89.9941 25.7698 90.2433 25.6069 90.5175 25.6069C90.6918 25.6069 90.9163 25.6822 91.1902 25.8449C91.4643 26.0078 91.8131 26.1708 92.249 26.3461C92.6855 26.5216 93.2088 26.5967 93.8192 26.5967C95.0029 26.5967 95.601 26.2584 95.601 25.5818C95.601 25.2061 95.4018 24.9053 95.0153 24.6798C94.6169 24.4543 94.1431 24.2788 93.5947 24.141C93.0343 24.0031 92.4735 23.8278 91.9127 23.6272C91.3522 23.4269 90.8663 23.1012 90.4798 22.6376C90.0814 22.1739 89.8818 21.5725 89.8818 20.8584C89.8818 19.8561 90.2306 18.9916 90.9163 18.265C91.6139 17.5382 92.6978 17.1749 94.2057 17.1749C95.2026 17.1749 96.0994 17.3253 96.8718 17.6385C97.6571 17.9517 98.0431 18.3151 98.0431 18.7535C98.0431 19.0292 97.9312 19.355 97.7194 19.7182C97.5074 20.0816 97.2335 20.2696 96.9094 20.2696C96.7845 20.2696 96.4357 20.1694 95.8625 19.9688C95.2898 19.7684 94.7537 19.6682 94.2553 19.6682C93.7073 19.6682 93.2835 19.781 92.9967 20.0065C92.7104 20.232 92.5608 20.47 92.5608 20.7331C92.5608 20.9963 92.7104 21.2218 92.9967 21.3972C93.2835 21.5725 93.6447 21.7104 94.0684 21.798C94.492 21.8982 94.9533 22.0235 95.4388 22.1865C95.9249 22.3494 96.3863 22.5498 96.7974 22.7629C97.221 22.9884 97.5698 23.3267 97.8563 23.7902C98.1431 24.2537 98.28 24.8176 98.28 25.4816C98.28 26.6092 97.8939 27.4863 97.1086 28.1253C96.3237 28.7643 95.2398 29.09 93.8316 29.09C92.6231 29.09 91.589 28.8771 90.7414 28.4635C89.8818 28.0374 89.458 27.5488 89.458 26.9976Z" fill="var(--fill-0, #B0B0B0)"/>
<path id="Vector_7" opacity="0.5" d="M38.2982 28.8896H30.4902V25.8827L37.7451 25.8751C37.5333 26.2384 37.5755 26.672 37.5755 27.1231C37.5755 27.8122 37.8496 28.4386 38.2982 28.8896Z" fill="url(#paint0_linear_0_31)"/>
<path id="Vector_8" opacity="0.5" d="M46.458 13.2283C46.458 14.0928 45.81 15.1829 45.3739 15.6965C45.7602 14.8446 45.05 13.9926 44.3273 13.9926H36.5686V10.9731H45.4984C46.1465 11.562 46.458 12.226 46.458 13.2283Z" fill="url(#paint1_linear_0_31)"/>
</g>
<defs>
<linearGradient id="paint0_linear_0_31" x1="36.1765" y1="27.4437" x2="41.5686" y2="27.5418" gradientUnits="userSpaceOnUse">
<stop stop-color="#6B6A6A" stop-opacity="0"/>
<stop offset="1" stop-color="#D1D1D1"/>
</linearGradient>
<linearGradient id="paint1_linear_0_31" x1="41.1351" y1="13.3292" x2="46.452" y2="13.3292" gradientUnits="userSpaceOnUse">
<stop stop-color="white" stop-opacity="0"/>
<stop offset="1" stop-color="#B0B0B0"/>
</linearGradient>
</defs>
</svg>
