<svg overflow="visible" style="display: block;" viewBox="0 0 128.431 40" fill="none" xmlns="http://www.w3.org/2000/svg">
<g id="solvis 1">
<path id="Vector" fill-rule="evenodd" clip-rule="evenodd" d="M90.6578 11.3163C89.2049 11.6677 88.0333 12.3424 86.8931 13.4842C85.1876 15.1924 84.4037 17.2013 84.5676 19.4444C84.7149 21.4625 85.4453 23.0355 86.9098 24.4892C88.0384 25.6094 89.4721 26.3716 91.069 26.7002L92.1341 26.9194V27.7118C92.1341 28.7455 92.4398 29.1845 93.1594 29.1845C93.6255 29.1845 93.7939 29.042 96.5531 26.312C98.899 23.991 99.5349 23.2859 99.8653 22.6406C100.823 20.4553 100.98 19.1452 100.403 16.6134C99.5043 14.0018 97.3172 11.9813 94.6568 11.305C93.6988 11.0615 91.6878 11.0671 90.6578 11.3163ZM88.5684 18.4971C88.8039 16.7796 90.161 15.3465 91.8929 14.9863C93.7078 14.6088 95.6494 15.5786 96.4851 17.2804C97.248 18.8342 96.8502 20.7878 95.5349 21.9455C94.5349 22.8259 93.8892 22.9873 91.3704 22.9873C89.6272 22.9873 89.1653 22.9502 89.0406 22.7998C88.8523 22.5731 88.9551 22.1963 89.287 21.8959C89.5267 21.679 89.5237 21.661 89.1606 21.088C88.7151 20.3855 88.4616 19.2768 88.5684 18.4971Z" fill="var(--fill-0, #B0B0B0)"/>
<path id="Vector_2" fill-rule="evenodd" clip-rule="evenodd" d="M30.3443 13.709C29.5514 13.8874 28.4784 14.5899 28.037 15.2198C27.6561 15.7635 27.6447 15.8219 27.6447 17.2412C27.6447 18.679 27.6512 18.711 28.0412 19.199C28.5841 19.8784 29.7482 20.4684 31.4112 20.9067C32.18 21.1092 33.017 21.3627 33.2714 21.47C33.9049 21.7371 34.2937 22.2653 34.2937 22.8582C34.2937 24.4278 32.0129 24.8912 29.721 23.7873C29.147 23.5108 28.4016 23.0729 28.0643 22.8141L27.451 22.3435V23.5606C27.451 24.7412 27.4616 24.7847 27.8061 25.0278C29.1223 25.9563 30.71 26.398 32.4233 26.3125C34.2447 26.2214 35.3566 25.63 36.0361 24.3908C36.3661 23.7894 36.4168 23.5608 36.4202 22.6647C36.4233 21.798 36.3721 21.5394 36.1012 21.0569C35.4978 19.9822 34.9427 19.6916 31.5296 18.6645C30.1002 18.2345 29.6459 17.8438 29.6459 17.0455C29.6459 16.6072 29.7259 16.4262 30.0731 16.0789C30.5935 15.5584 31.358 15.4075 32.3894 15.6216C33.1865 15.7871 34.6451 16.4597 35.3265 16.9759L35.7784 17.3183L35.8163 16.2582C35.837 15.675 35.8235 15.118 35.7859 15.0204C35.6796 14.7431 33.9308 13.9687 32.9343 13.7576C31.9335 13.5456 31.1366 13.5307 30.3443 13.709ZM75.9955 13.6833C75.3831 13.8702 74.6039 14.3285 74.1835 14.7489C73.5333 15.3991 73.29 16.0607 73.29 17.1776C73.29 19.2673 74.1302 20.0327 77.3945 20.9173C79.0763 21.3731 79.4823 21.5571 79.8574 22.0339C80.3608 22.6741 80.0976 23.6888 79.3178 24.1149C79.0115 24.282 78.6086 24.3427 77.8031 24.3424C76.7755 24.3424 76.6321 24.3069 75.5476 23.7863C74.9108 23.4806 74.1388 23.0249 73.8321 22.7735L73.2747 22.3167L73.3117 23.5867L73.3488 24.8565L73.9739 25.2653C75.0708 25.9822 76.2345 26.28 77.9321 26.2778C79.1982 26.2761 79.511 26.2327 80.0553 25.9833C81.0065 25.5478 81.4474 25.1608 81.8694 24.3908C82.1998 23.7882 82.25 23.5624 82.2521 22.6647C82.257 20.5922 81.4368 19.8145 78.3049 18.9216C76.2619 18.339 75.8592 18.134 75.5616 17.5246C75.3476 17.0867 75.3406 16.9815 75.497 16.5701C75.7606 15.8778 76.2402 15.585 77.2121 15.5232C78.2533 15.4568 79.3306 15.7959 80.6357 16.6005C81.1504 16.9178 81.5953 17.1776 81.6241 17.1776C81.6527 17.1776 81.6763 16.6619 81.6763 16.0316V14.8856L80.7915 14.4207C80.3049 14.165 79.5351 13.8682 79.0808 13.761C78.2157 13.5571 76.5466 13.515 75.9955 13.6833ZM41.7955 14.0169C37.9829 15.0869 36.1165 19.2713 37.8598 22.84C39.1482 25.4771 42.1419 26.8753 44.9396 26.1467C47.1429 25.5727 48.8463 23.928 49.467 21.7755C49.77 20.7245 49.6798 18.8192 49.2776 17.7813C48.6553 16.1751 47.2031 14.7684 45.5633 14.1838C44.5749 13.8314 42.7453 13.7503 41.7955 14.0169ZM51.4651 20.0825V26.3443H55.0768H58.6886L58.5751 26.0537C58.5127 25.8941 58.3419 25.4873 58.1957 25.15L57.9296 24.5367H55.7302H53.5308V19.1787V13.8208H52.4978H51.4651V20.0825ZM57.3337 14.0467C57.709 15.0283 62.6329 26.2151 62.6894 26.2143C62.7294 26.2139 63.948 23.4688 65.3978 20.1139C66.8476 16.7593 68.0566 13.9709 68.0845 13.9176C68.1123 13.8644 67.6443 13.8208 67.0441 13.8208H65.9529L64.3574 17.5623C63.48 19.6202 62.7317 21.3051 62.6951 21.3065C62.658 21.3078 61.908 19.6241 61.028 17.5649L59.428 13.8208H58.3376C57.3523 13.8208 57.2557 13.8426 57.3337 14.0467ZM69.6692 20.0825V26.3443H70.6376H71.6059V20.0825V13.8208H70.6376H69.6692V20.0825ZM42.4184 15.9263C40.4596 16.4799 39.1998 18.1078 39.1998 20.0861C39.1998 22.1331 40.6312 23.8647 42.6747 24.2894C44.4735 24.6633 46.489 23.5943 47.32 21.8255C47.7998 20.8043 47.7974 19.3506 47.3145 18.3204C46.4417 16.4588 44.278 15.4008 42.4184 15.9263Z" fill="var(--fill-0, #B0B0B0)"/>
</g>
</svg>
