<svg overflow="visible" style="display: block;" viewBox="0 0 128.431 40" fill="none" xmlns="http://www.w3.org/2000/svg">
<g id="vibe 1">
<path id="Vector" d="M34.9802 13.4434L43.6269 35.9437C44.0835 37.1322 45.7518 37.1673 46.2584 35.9996L59.7249 4.95537C60.1402 3.99798 59.2002 3.01207 58.2243 3.38123L35.6677 11.9097C35.5214 11.9649 35.3877 12.0485 35.2739 12.1555C35.1604 12.2626 35.0688 12.3911 35.0051 12.5336C34.9412 12.6762 34.9061 12.8299 34.9018 12.986C34.8977 13.1422 34.9243 13.2976 34.9802 13.4434Z" fill="var(--fill-0, #44FED9)"/>
<path id="Vector_2" d="M59.592 19.7671L54.9594 32.1306H51.9263L47.2714 19.7671H50.6453L53.4424 28.0524L56.2396 19.7671H59.592Z" fill="var(--fill-0, #B0B0B0)"/>
<path id="Vector_3" d="M64.4079 17.6106H61.2067V14.4063H64.4079V17.6106ZM64.3634 32.1096H61.2477V19.7461H64.3634V32.1096Z" fill="var(--fill-0, #B0B0B0)"/>
<path id="Vector_4" d="M78.8308 25.938C78.8349 26.7833 78.6863 27.6225 78.3922 28.4151C78.1145 29.1729 77.6971 29.872 77.1618 30.4759C76.6336 31.0663 75.993 31.5453 75.2775 31.8851C74.5494 32.2341 73.7504 32.4086 72.8804 32.4082C72.3653 32.4123 71.8528 32.3369 71.3608 32.1841C70.8783 32.0288 70.4285 31.7863 70.0334 31.4688V32.1096H66.9585V12.408H70.0547L70.0763 20.3653C70.4575 20.0667 70.8871 19.8357 71.3463 19.682C71.8449 19.5095 72.3692 19.4228 72.8969 19.4254C73.6586 19.4265 74.4106 19.5973 75.0979 19.9257C75.8118 20.2621 76.4565 20.7294 76.9987 21.3031C77.5634 21.9043 78.0141 22.6029 78.3292 23.3651C78.6685 24.18 78.839 25.0553 78.8308 25.938ZM75.7136 25.938C75.72 25.4074 75.6328 24.8798 75.4561 24.3794C75.2987 23.9339 75.0547 23.5237 74.7383 23.1729C74.4336 22.8408 74.0608 22.5784 73.6453 22.4041C73.1998 22.222 72.7224 22.1312 72.2412 22.1374C71.912 22.1374 71.5334 22.2051 71.1053 22.34C70.7212 22.4533 70.3589 22.6302 70.0334 22.8633V28.7998C70.7045 29.412 71.4618 29.718 72.3051 29.7176C72.7736 29.7214 73.2377 29.6271 73.6673 29.4406C74.0796 29.262 74.4485 28.9965 74.7486 28.6621C75.0583 28.3121 75.2983 27.9065 75.4561 27.4667C75.6324 26.9767 75.7196 26.4588 75.7136 25.938Z" fill="var(--fill-0, #B0B0B0)"/>
<path id="Vector_5" d="M93.7255 25.9171C93.7255 26.1173 93.7149 26.3235 93.6936 26.5363C93.6722 26.749 93.6471 26.9696 93.6185 27.198H83.754C83.8687 27.5559 84.0304 27.8967 84.2345 28.212C84.4389 28.53 84.6951 28.8116 84.9924 29.0449C85.2985 29.2833 85.641 29.4708 86.0069 29.6C86.4089 29.7388 86.832 29.8065 87.2573 29.8002C87.8247 29.798 88.3879 29.7008 88.923 29.512C89.4783 29.32 89.941 29.0602 90.311 28.7328L92.254 30.6755C91.4002 31.3165 90.564 31.7684 89.7449 32.0316C88.9061 32.2982 88.0308 32.4316 87.1508 32.4267C85.3991 32.4359 83.7145 31.7528 82.464 30.5259C81.8679 29.9363 81.3922 29.2363 81.0634 28.4651C80.7249 27.6645 80.5506 26.8041 80.5506 25.9349C80.5506 25.0657 80.7249 24.2053 81.0634 23.4045C81.3932 22.6331 81.8714 21.9341 82.4708 21.3473C83.0769 20.7582 83.7873 20.2873 84.5657 19.9586C85.3757 19.6143 86.2477 19.4398 87.1279 19.4459C87.9845 19.4432 88.834 19.6063 89.6289 19.9261C90.4098 20.2369 91.1265 20.6894 91.7428 21.2612C92.3583 21.8365 92.8516 22.5298 93.1934 23.3C93.5481 24.091 93.7255 24.9633 93.7255 25.9171ZM90.5012 24.7212C90.2591 23.9384 89.8285 23.3084 89.2091 22.8314C88.6102 22.3616 87.8695 22.1094 87.1083 22.1161C86.3563 22.1102 85.6251 22.3628 85.0369 22.8314C84.4247 23.3084 83.9975 23.9384 83.7553 24.7212H90.5012Z" fill="var(--fill-0, #B0B0B0)"/>
</g>
</svg>
