<svg overflow="visible" style="display: block;" viewBox="0 0 128.431 40" fill="none" xmlns="http://www.w3.org/2000/svg">
<g id="viraser 1">
<path id="Vector" d="M18.821 32.9408C11.656 32.9408 5.88235 27.1831 5.88235 20.0349C5.87662 12.8408 11.6687 7.04422 18.8286 7.05885C26.1137 7.07413 31.9045 12.989 31.7622 20.2626C31.6261 27.4261 25.7767 32.9886 18.821 32.9408ZM18.7904 31.6255C25.0747 31.6133 30.1992 26.7435 30.4135 20.4757C30.6423 13.8547 25.6578 8.57081 19.0626 8.40479C12.6798 8.24387 7.35501 13.2721 7.22086 19.7759C7.0905 26.1953 12.1558 31.5606 18.7904 31.6255Z" fill="var(--fill-0, #B0B0B0)"/>
<path id="Vector_2" d="M7.93935 20.5437C8.68776 20.4802 9.48833 20.5075 10.287 20.4928C11.5237 20.4706 12.7605 20.4788 13.9973 20.4567C14.876 20.4406 15.6505 20.8008 16.3264 21.3408C17.2593 22.0875 17.9447 23.0161 18.1164 24.2279C18.2003 24.8208 18.18 25.4294 18.1902 26.0312C18.2251 27.5953 18.2537 29.16 18.2836 30.7241C18.2836 30.7828 18.2836 30.8412 18.2836 30.9894C17.478 30.1759 16.7308 29.4188 15.9793 28.6651C15.901 28.5869 15.903 28.501 15.9004 28.4063C15.8553 26.748 15.8038 25.0892 15.7675 23.4308C15.7624 23.2063 15.6969 23.1414 15.4769 23.1465C13.9458 23.1796 12.414 23.1986 10.8828 23.2324C10.7792 23.2404 10.6751 23.2245 10.5787 23.1857C10.4823 23.1469 10.3961 23.0861 10.327 23.0084C9.53347 22.1747 8.72592 21.3528 7.93935 20.5437Z" fill="var(--fill-0, #B0B0B0)"/>
<path id="Vector_3" d="M12.3974 28.169C11.4309 28.1735 10.6342 27.3841 10.6418 26.4292C10.6426 25.9641 10.828 25.5184 11.1573 25.1902C11.4866 24.8618 11.9328 24.6776 12.3977 24.6784C12.8627 24.6792 13.3083 24.8647 13.6365 25.1941C13.9648 25.5235 14.1487 25.97 14.148 26.4351C14.1486 27.4037 13.3786 28.1639 12.3974 28.169Z" fill="var(--fill-0, #B0B0B0)"/>
<path id="Vector_4" d="M12.4184 11.8351C13.3341 11.8078 14.1874 12.6397 14.1639 13.6002C14.1536 14.0627 13.9624 14.5027 13.6312 14.8256C13.3001 15.1485 12.8555 15.3285 12.3931 15.327C11.9306 15.3254 11.4873 15.1423 11.1583 14.8171C10.8294 14.492 10.6412 14.0507 10.6341 13.5881C10.6259 12.6099 11.4144 11.8338 12.4184 11.8351Z" fill="var(--fill-0, #B0B0B0)"/>
<path id="Vector_5" d="M29.7014 19.5024C28.9529 19.566 28.1523 19.5393 27.3537 19.5533C26.1169 19.5756 24.8802 19.5679 23.6433 19.5902C22.7653 19.6061 21.9902 19.2455 21.3141 18.7054C20.382 17.9587 19.6959 17.0306 19.5242 15.8183C19.4409 15.2254 19.4606 14.6167 19.4505 14.015C19.4161 12.4507 19.385 10.8865 19.357 9.32263C19.357 9.26348 19.357 9.20495 19.357 9.05738C20.1625 9.87093 20.9104 10.6279 21.662 11.3842C21.7396 11.4624 21.7376 11.5483 21.7402 11.6437C21.7853 13.3019 21.8369 14.9602 21.8731 16.6191C21.8782 16.8436 21.9437 16.9079 22.1637 16.9034C23.6949 16.8697 25.2267 16.8506 26.7584 16.8175C26.862 16.8095 26.9659 16.8255 27.0621 16.8642C27.1584 16.9029 27.2445 16.9634 27.3135 17.0408C28.1072 17.8722 28.9147 18.6933 29.7014 19.5024Z" fill="var(--fill-0, #B0B0B0)"/>
<path id="Vector_6" d="M25.2431 11.8777C25.588 11.8787 25.9247 11.9821 26.2108 12.1746C26.4969 12.3672 26.7194 12.6404 26.8502 12.9595C26.981 13.2787 27.0141 13.6295 26.9455 13.9675C26.8769 14.3055 26.7096 14.6155 26.4647 14.8584C26.2198 15.1012 25.9084 15.2659 25.5698 15.3315C25.2314 15.3972 24.881 15.361 24.5631 15.2273C24.2453 15.0937 23.9741 14.8687 23.7841 14.5809C23.5941 14.2931 23.4939 13.9553 23.4959 13.6104C23.4959 12.6423 24.262 11.8822 25.2431 11.8777Z" fill="var(--fill-0, #B0B0B0)"/>
<path id="Vector_7" d="M25.2221 28.2116C24.3064 28.2382 23.4531 27.4063 23.4766 26.4459C23.487 25.9833 23.6782 25.5433 24.0094 25.2204C24.3404 24.8974 24.7851 24.7174 25.2474 24.719C25.71 24.7208 26.1533 24.9037 26.4821 25.2288C26.8112 25.5541 26.9994 25.9953 27.0064 26.4578C27.0153 27.4363 26.2257 28.2129 25.2221 28.2116Z" fill="var(--fill-0, #B0B0B0)"/>
<path id="Vector_8" d="M19.2598 30.8965C19.1962 30.1478 19.2229 29.347 19.2089 28.548C19.1867 27.311 19.1943 26.0737 19.172 24.8367C19.1561 23.9582 19.5167 23.1827 20.0565 22.5067C20.8031 21.5741 21.7308 20.8878 22.9427 20.7161C23.5353 20.6327 24.1439 20.6525 24.7455 20.6423C26.3092 20.608 27.8727 20.5769 29.4363 20.5488C29.4953 20.5488 29.5539 20.5488 29.7014 20.5488C28.888 21.3547 28.1314 22.1027 27.3786 22.8545C27.3004 22.9321 27.2145 22.9302 27.119 22.9327C25.4614 22.978 23.8037 23.0294 22.1453 23.0657C21.921 23.0708 21.8567 23.1363 21.8612 23.3565C21.8949 24.888 21.9139 26.4204 21.947 27.9527C21.9551 28.0563 21.939 28.1602 21.9004 28.2565C21.8616 28.3527 21.8012 28.4388 21.7237 28.508C20.8888 29.3018 20.0686 30.1096 19.2598 30.8965Z" fill="var(--fill-0, #B0B0B0)"/>
<path id="Vector_9" d="M18.2888 9.24249C18.3524 9.99116 18.3257 10.792 18.3397 11.5909C18.3619 12.8281 18.3537 14.0652 18.3759 15.3024C18.3918 16.1815 18.0319 16.9562 17.4921 17.6324C16.7456 18.5649 15.8178 19.2512 14.6059 19.4229C14.0132 19.5063 13.4047 19.4865 12.8032 19.4967C11.2398 19.5311 9.67599 19.5622 8.11177 19.5902C8.05326 19.5902 7.99477 19.5902 7.84724 19.5902C8.65987 18.7843 9.41721 18.0363 10.1701 17.2844C10.2483 17.2068 10.3341 17.2087 10.4289 17.2062C12.0872 17.161 13.7449 17.1095 15.4026 17.0733C15.6271 17.0682 15.6919 17.0027 15.6869 16.7826C15.6538 15.2509 15.6347 13.7186 15.601 12.1869C15.5932 12.0833 15.6094 11.9793 15.6482 11.8829C15.687 11.7865 15.7474 11.7003 15.8248 11.631C16.6591 10.8371 17.48 10.0293 18.2888 9.24249Z" fill="var(--fill-0, #B0B0B0)"/>
<path id="Vector_10" d="M65.7414 22.9912L68.7592 26.3229L72.169 20.8735C72.6531 20.1004 73.1743 19.3475 73.6112 18.549C74.2135 17.4505 75.86 17.5417 76.4429 18.5143C78.0153 21.1337 79.6618 23.7153 81.278 26.312C81.3094 26.3747 81.3376 26.439 81.3625 26.5047C80.6274 26.5047 79.9263 26.4978 79.2325 26.5047C78.9884 26.5047 78.9394 26.3214 78.8482 26.1733C77.6655 24.2502 76.4827 22.3265 75.3 20.402C75.2155 20.2584 75.1225 20.1157 75.0322 19.9694C74.8953 19.9914 74.8759 20.1172 74.8243 20.2018C73.6018 22.19 72.3802 24.1716 71.1755 26.1616C71.0157 26.4269 70.8425 26.5122 70.5402 26.5088C69.1622 26.492 67.7843 26.4945 66.4063 26.5088C66.2898 26.5172 66.1731 26.4974 66.0659 26.4512C65.9586 26.4047 65.8641 26.3333 65.7904 26.2427C64.8967 25.2286 63.9841 24.2392 63.0871 23.2337C62.9374 23.0647 62.7914 22.9751 62.5531 22.9802C61.5545 22.9945 60.5559 22.9988 59.558 22.9802C59.2506 22.9733 59.189 23.0757 59.1939 23.3612C59.2118 24.2908 59.188 25.2202 59.2084 26.1455C59.2151 26.4498 59.1163 26.5231 58.829 26.5114C58.2959 26.4902 57.7604 26.4945 57.2239 26.5114C56.9788 26.519 56.8859 26.4682 56.8859 26.1927C56.8961 22.9294 56.8961 19.6667 56.8859 16.4043C56.8859 16.1255 56.9865 16.0883 57.228 16.0892C59.9425 16.0968 62.6561 16.0892 65.3698 16.1001C65.8753 16.1036 66.3798 16.1494 66.8778 16.237C68.2659 16.4762 68.8986 17.1091 69.0743 18.4949C69.1792 19.2761 69.1714 20.0684 69.0508 20.8474C68.8869 21.8741 68.2565 22.48 67.2706 22.7545C66.789 22.8872 66.2855 22.9033 65.7414 22.9912ZM62.5927 18.0901V18.0631C61.579 18.0631 60.5651 18.0707 59.5514 18.0572C59.2861 18.0572 59.1829 18.1112 59.1906 18.4036C59.2118 19.2191 59.2125 20.0361 59.1906 20.8541C59.1829 21.1618 59.2878 21.2225 59.5725 21.2208C61.4437 21.209 63.3143 21.2208 65.1847 21.2116C65.4376 21.2078 65.6898 21.1847 65.9392 21.1423C66.4714 21.0578 66.73 20.7788 66.7729 20.2416C66.7959 19.9618 66.7949 19.6796 66.79 19.3965C66.7747 18.418 66.4867 18.1146 65.4998 18.0952C64.5333 18.0766 63.5625 18.0918 62.5927 18.0918V18.0901Z" fill="var(--fill-0, #B0B0B0)"/>
<path id="Vector_11" d="M114.132 23.0012L117.294 26.4996C116.313 26.4996 115.42 26.4996 114.526 26.4996C114.345 26.4996 114.273 26.338 114.173 26.229C113.255 25.2265 112.341 24.218 111.429 23.2039C111.375 23.1329 111.305 23.0759 111.224 23.0375C111.144 22.999 111.055 22.9806 110.965 22.9835C109.94 22.9947 108.914 22.9947 107.887 22.9835C107.651 22.9835 107.576 23.0435 107.579 23.2859C107.593 24.2426 107.575 25.1982 107.591 26.1547C107.591 26.4269 107.529 26.5241 107.242 26.5129C106.681 26.491 106.118 26.4996 105.553 26.5129C105.352 26.5129 105.253 26.4869 105.254 26.2451C105.261 22.9547 105.261 19.6643 105.254 16.3739C105.254 16.1981 105.264 16.09 105.494 16.0933C108.586 16.1398 111.678 16.0088 114.768 16.1728C115.02 16.1926 115.27 16.2327 115.516 16.2928C116.628 16.5344 117.29 17.2045 117.431 18.3503C117.536 19.159 117.536 19.9778 117.431 20.7865C117.286 21.8578 116.647 22.4765 115.626 22.7622C115.161 22.8871 114.672 22.8939 114.132 23.0012ZM111.006 18.0935V18.0647C109.992 18.0647 108.978 18.0732 107.97 18.0588C107.694 18.0546 107.573 18.1053 107.581 18.4196C107.603 19.2342 107.6 20.0504 107.581 20.8651C107.575 21.1439 107.655 21.2208 107.935 21.219C109.748 21.2065 111.561 21.219 113.374 21.2098C113.669 21.2075 113.963 21.1869 114.255 21.148C114.847 21.0722 115.1 20.8102 115.149 20.2245C115.174 19.9437 115.183 19.6616 115.176 19.3796C115.15 18.4171 114.867 18.1163 113.909 18.0952C112.941 18.0766 111.972 18.0935 111.003 18.0935H111.006Z" fill="var(--fill-0, #B0B0B0)"/>
<path id="Vector_12" d="M80.8192 24.5188C83.3935 24.5188 85.8816 24.5122 88.3686 24.5188C89.9249 24.5247 89.7533 24.0643 89.7163 22.8467C89.7061 22.5222 89.4627 22.3176 89.1459 22.2551C88.9251 22.2161 88.7012 22.1976 88.4769 22.2002C86.6782 22.1867 84.8786 22.1808 83.08 22.1655C82.8837 22.1586 82.6886 22.1333 82.497 22.0904C81.3802 21.868 80.918 21.4067 80.7584 20.288C80.6402 19.4937 80.6576 18.6851 80.81 17.8966C81.0051 16.9122 81.61 16.3545 82.6398 16.1796C82.9582 16.1248 83.2808 16.0966 83.6037 16.0951C86.0639 16.0883 88.5241 16.0951 90.9835 16.0849C91.2859 16.0849 91.4151 16.1365 91.3898 16.4703C91.3576 16.8769 91.3576 17.2855 91.3898 17.6921C91.4194 18.0462 91.2731 18.0986 90.9616 18.0969C88.6423 18.0851 86.3225 18.0901 84.0025 18.091C82.9888 18.091 82.4465 19.0391 82.9465 19.95C83.1206 20.2669 83.4247 20.309 83.7457 20.309C85.2496 20.309 86.7541 20.3041 88.258 20.309C88.889 20.309 89.5253 20.3251 90.1429 20.4612C91.0722 20.6657 91.6727 21.2149 91.8139 22.1739C91.938 22.981 91.938 23.8024 91.8139 24.6092C91.6298 25.7645 90.8584 26.3669 89.5016 26.4522C87.8592 26.5563 86.2135 26.4792 84.5694 26.4978C83.8531 26.5055 83.1333 26.4894 82.4194 26.5037C82.1827 26.5088 82.0316 26.4429 81.9065 26.2369C81.5661 25.6833 81.2086 25.1349 80.8192 24.5188Z" fill="var(--fill-0, #B0B0B0)"/>
<path id="Vector_13" d="M102.445 20.5533C101.911 21.0324 101.368 21.5014 100.849 21.9957C100.773 22.0749 100.681 22.1371 100.579 22.1778C100.477 22.2186 100.368 22.2371 100.258 22.2324C98.7255 22.2222 97.1921 22.2324 95.6596 22.2222C95.4019 22.2222 95.2684 22.2635 95.3031 22.5602C95.3335 22.8247 95.3098 23.0941 95.3335 23.3596C95.4019 24.1412 95.6461 24.3973 96.419 24.4918C96.6717 24.5157 96.9257 24.5247 97.1794 24.5188C99.4013 24.5188 101.623 24.5247 103.845 24.5129C104.129 24.5129 104.241 24.562 104.219 24.8722C104.192 25.2941 104.192 25.7174 104.219 26.1396C104.236 26.4294 104.155 26.5182 103.854 26.5157C102.264 26.4996 100.675 26.5157 99.0862 26.5055C97.9211 26.4978 96.7494 26.59 95.5919 26.4074C93.849 26.1337 93.1951 25.5143 93.0457 23.7584C92.8947 22.091 92.8992 20.4131 93.0592 18.7467C93.2323 17.0415 94.0653 16.3173 95.7753 16.1635C97.1515 16.0401 98.5286 16.1128 99.9057 16.0984C101.227 16.0849 102.549 16.1044 103.871 16.0892C104.149 16.0892 104.235 16.1618 104.219 16.439C104.191 16.8461 104.191 17.2546 104.219 17.6617C104.245 18.0048 104.154 18.1079 103.791 18.1045C101.555 18.085 99.3186 18.1129 97.0831 18.0893C95.2523 18.0698 95.3039 18.8024 95.309 20.168C95.309 20.4586 95.5268 20.369 95.6731 20.369C97.7541 20.3729 99.8353 20.3729 101.916 20.369H102.323L102.445 20.5533Z" fill="var(--fill-0, #B0B0B0)"/>
<path id="Vector_14" d="M36.0784 16.0926C36.8827 16.0926 37.6567 16.1095 38.4288 16.0841C38.7355 16.074 38.9002 16.1737 39.0582 16.434C40.5271 18.8563 42.0047 21.2722 43.491 23.6816C43.5627 23.799 43.6388 23.9129 43.7157 24.0339C43.8847 23.9747 43.9133 23.8243 43.981 23.7145C45.4714 21.2898 46.9539 18.8605 48.429 16.4263C48.5778 16.1804 48.7282 16.074 49.0204 16.0883C49.6963 16.112 50.3721 16.1103 51.0439 16.0883C51.3884 16.0782 51.3869 16.1729 51.2272 16.4263C50.0641 18.2786 48.9053 20.1337 47.7506 21.9916C46.9794 23.2286 46.1937 24.4573 45.4418 25.7094C44.9763 26.4818 44.3316 26.8012 43.4369 26.7235C42.7416 26.6643 42.3141 26.2714 41.9745 25.7239L38.6045 20.2906C37.829 19.0382 37.0545 17.7862 36.2812 16.5345C36.2035 16.4086 36.0843 16.2979 36.0784 16.0926Z" fill="var(--fill-0, #B0B0B0)"/>
<path id="Vector_15" d="M55.0374 21.2673C55.0374 22.8837 55.028 24.5002 55.0459 26.1169C55.0459 26.4386 54.9614 26.5267 54.6488 26.5114C54.1014 26.4861 53.5506 26.4945 53.0047 26.5114C52.7665 26.5173 52.6955 26.4422 52.6965 26.2014C52.7037 22.9402 52.7037 19.679 52.6965 16.4179C52.6965 16.1559 52.7682 16.0799 53.0284 16.0883C53.5759 16.1078 54.1267 16.1111 54.6716 16.0883C54.9698 16.0748 55.0484 16.1669 55.0451 16.4627C55.0298 18.0622 55.0374 19.6653 55.0374 21.2673Z" fill="var(--fill-0, #B0B0B0)"/>
<path id="Vector_16" d="M120.398 13.6032C120.718 13.603 121.031 13.6978 121.297 13.8755C121.563 14.0532 121.771 14.3059 121.893 14.6015C122.016 14.8972 122.048 15.2226 121.986 15.5365C121.923 15.8505 121.769 16.1389 121.543 16.3653C121.317 16.5917 121.029 16.7459 120.715 16.8084C120.401 16.8709 120.076 16.8389 119.78 16.7164C119.484 16.594 119.232 16.3866 119.054 16.1204C118.876 15.8543 118.781 15.5414 118.781 15.2213C118.781 14.7924 118.952 14.3811 119.255 14.0777C119.558 13.7743 119.969 13.6036 120.398 13.6032ZM120.398 13.2652C120.011 13.265 119.633 13.3796 119.311 13.5944C118.989 13.8093 118.739 14.1147 118.591 14.4722C118.442 14.8296 118.404 15.223 118.479 15.6025C118.554 15.982 118.74 16.3306 119.014 16.6043C119.287 16.8779 119.636 17.0643 120.015 17.1399C120.395 17.2154 120.788 17.1767 121.145 17.0287C121.503 16.8807 121.808 16.6299 122.023 16.3082C122.238 15.9865 122.353 15.6083 122.353 15.2213C122.353 14.9645 122.303 14.7101 122.204 14.4728C122.106 14.2355 121.962 14.0198 121.781 13.8382C121.599 13.6565 121.384 13.5124 121.146 13.4141C120.909 13.3158 120.655 13.2652 120.398 13.2652Z" fill="var(--fill-0, #B0B0B0)"/>
<path id="Vector_17" d="M120.202 15.2982V15.9531H119.98V14.4887H120.308C120.385 14.4868 120.46 14.4933 120.535 14.5082C120.585 14.5191 120.632 14.5404 120.673 14.5707C120.719 14.6069 120.755 14.6543 120.777 14.7084C120.803 14.7662 120.815 14.8287 120.814 14.8918C120.821 14.9908 120.791 15.0887 120.73 15.1673C120.664 15.2384 120.573 15.2814 120.477 15.2873L120.984 15.9531H120.715L120.227 15.2982H120.202ZM120.217 15.1132H120.26C120.347 15.1216 120.435 15.1064 120.514 15.0693C120.536 15.0502 120.553 15.026 120.564 14.9988C120.575 14.9715 120.579 14.942 120.575 14.9129C120.578 14.8816 120.574 14.8499 120.563 14.8206C120.551 14.7912 120.533 14.765 120.51 14.7439C120.434 14.7039 120.348 14.6869 120.263 14.6949H120.22L120.217 15.1132Z" fill="var(--fill-0, #B0B0B0)"/>
</g>
</svg>
