<svg width="44" height="41" viewBox="0 0 44 41" fill="none" xmlns="http://www.w3.org/2000/svg">
<g clip-path="url(#clip0_4416_1001)">
<path d="M3.02702 25.1492C3.65409 25.5237 4.30456 25.8444 4.97258 26.1407C13.059 29.7309 21.3793 27.1777 25.591 20.5734C27.8947 16.961 28.9241 11.9944 32.8515 9.66623C34.1618 8.88939 35.6722 8.47998 37.1954 8.47998C39.678 8.47998 41.9066 9.53676 43.4626 11.2281C43.2637 28.6777 30.1969 37.0222 25.2097 39.7949C23.8479 40.5518 22.2193 40.6719 20.7652 40.112C19.6011 39.6642 18.4616 39.1533 17.3467 38.5958C15.9159 37.8795 14.526 37.0829 13.1901 36.2046C11.6785 35.2096 10.2348 34.1073 8.89646 32.8885C7.47384 31.5925 6.17056 30.1613 5.0533 28.5937C4.27882 27.5066 3.59559 26.3542 3.02585 25.1481" fill="#18137B"/>
<path d="M1.01622 17.0066C1.04547 17.6365 1.11449 18.2617 1.18819 18.8496C1.37655 20.3542 1.73688 21.8367 2.24696 23.2656C2.4751 23.906 2.73598 24.5347 3.02729 25.1483C3.65436 25.5226 4.30483 25.8434 4.97285 26.1397C13.0593 29.73 21.3797 27.1766 25.5914 20.5724C27.8949 16.9599 28.9244 11.9934 32.8518 9.66519C34.1621 8.88836 35.6724 8.47894 37.1956 8.47894C39.6782 8.47894 41.9069 9.53572 43.4628 11.227C43.4699 10.5762 43.4594 9.91247 43.4301 9.23595C43.4301 9.23595 43.4172 8.46961 43.2102 7.28686C42.5152 3.30821 39.1529 0.280189 35.1027 0.161214C35.0173 0.158881 34.9319 0.157715 34.8465 0.157715C34.7693 0.157715 34.6921 0.157715 34.616 0.161214C32.2808 0.253361 30.037 1.03719 28.1745 2.44856C25.4685 4.49912 23.9534 7.43966 22.8198 10.5552C21.8652 13.1785 20.7339 15.4716 18.5801 17.3344C16.6439 19.0094 14.1847 20.1117 11.639 20.4347V20.4382C11.1032 20.5048 10.5568 20.5385 10.0011 20.5385C6.5452 20.5385 3.36188 19.1796 1.01388 17.0055L1.01622 17.0066Z" fill="#332ADE"/>
<path d="M22.8198 10.5552C21.8651 13.1785 20.7338 15.4717 18.58 17.3344C16.6438 19.0094 14.1847 20.1117 11.6389 20.4348V20.4382C11.1031 20.5048 10.5568 20.5386 10.0011 20.5386C6.54517 20.5386 3.36184 19.1797 1.01383 17.0055C0.975225 16.1564 1.01032 15.3002 1.21038 14.5152C1.36246 13.918 1.66196 13.3745 2.11706 12.9546C2.82602 12.299 3.79003 11.9327 4.75637 11.9538C5.82684 11.9771 6.66683 12.6 7.54193 13.14C8.10114 13.4853 8.70481 13.7769 9.31785 14.016C10.6281 14.5269 12.0321 14.7858 13.4383 14.7858C17.7354 14.7858 21.5902 12.3725 23.4878 8.83008" fill="#9995EF"/>
</g>
<defs>
<clipPath id="clip0_4416_1001">
<rect width="44" height="41" fill="white"/>
</clipPath>
</defs>
</svg>
