<svg preserveAspectRatio="none" width="100%" height="100%" overflow="visible" style="display: block;" viewBox="0 0 660 629" fill="none" xmlns="http://www.w3.org/2000/svg">
<path id="Vector" opacity="0.05" d="M659.467 146.228C659.014 135.89 657.831 125.597 655.928 115.426C644.604 50.4235 589.472 1.89309 524.857 0C522.238 0 519.726 0 516.877 0C479.792 1.32072 444.02 14.0619 414.451 36.4819C378.321 63.9583 356.452 101.112 341.59 135.4C314.095 187.664 257.848 221.846 196.983 221.846C176.765 221.885 156.719 218.129 137.888 210.77C129.054 207.353 120.544 203.149 112.462 198.209L107.632 195.166C95.2468 187.346 82.5077 179.242 65.8761 178.889C48.8135 178.608 32.2948 184.891 19.7321 196.439C11.7306 204.002 6.0842 213.716 3.47197 224.411C-2.22525 246.792 0.198721 271.774 2.90579 293.412C5.88997 316.891 11.407 339.979 19.3605 362.271C30.0134 391.797 44.677 419.718 62.939 445.249C80.3282 469.462 100.232 491.767 122.317 511.79C142.956 530.533 165.028 547.635 188.331 562.939C208.825 576.44 230.094 588.728 252.027 599.739C269.72 608.586 287.413 616.459 304.505 623.076C316.581 627.749 329.541 629.697 342.458 628.779C355.375 627.861 367.929 624.101 379.223 617.768C449.607 578.508 508.26 530.296 553.537 474.459C629.282 381.326 664.863 270.889 659.467 146.228ZM17.8566 260.239C17.3695 249.672 18.3278 239.088 20.7052 228.781C22.4747 221.384 26.3457 214.656 31.8519 209.408C41.0259 200.956 53.1031 196.362 65.5753 196.581C77.2882 196.829 87.4795 203.286 98.2547 210.116C99.9179 211.16 101.581 212.221 103.244 213.247C112.239 218.757 121.714 223.441 131.553 227.242C152.407 235.432 174.614 239.633 197.018 239.627C241.979 239.518 285.33 222.881 318.819 192.883C307.583 217.847 292.58 242.228 268.959 262.733C240.631 287.186 205.762 302.809 168.656 307.672L165.56 308.097C158.737 308.825 151.88 309.191 145.018 309.194C98.0063 309.317 52.6482 291.854 17.8566 260.239ZM19.7851 284.831C55.8082 312.199 99.8306 326.963 145.071 326.851C153.718 326.844 162.356 326.312 170.939 325.258L179.679 324.108V323.878C216.992 317.349 251.841 300.842 280.53 276.109C316.43 244.952 333.769 206.524 347.163 169.618C350.242 161.143 353.674 152.191 357.638 143.079C360.162 138.196 362.468 133.177 364.556 128.023C378.162 100.299 397.058 72.0968 425.173 50.7066C451.825 30.5085 484.059 19.0229 517.478 17.8163C519.761 17.8163 522.061 17.8163 524.361 17.8163C580.608 19.4617 628.627 61.8352 638.518 118.663C640.231 127.979 641.296 137.402 641.703 146.865V147.095C641.827 150.227 641.915 153.305 642.004 156.401C620.17 138.986 593.553 128.628 565.691 126.704C537.829 124.779 510.041 131.379 486.02 145.627C443.061 171.175 422.183 215.689 401.977 258.735C392.723 278.462 383.983 297.092 373.279 313.935C310.538 412.606 186.845 445.956 72.4933 395.037C63.6039 391.163 54.9224 386.829 46.4842 382.051C42.6094 373.647 39.0708 365.137 36.0098 356.539C28.4819 335.462 23.2613 313.632 20.4398 291.43C20.2275 289.13 20.0329 286.99 19.7851 284.831ZM370.766 602.287C361.739 607.353 351.705 610.365 341.38 611.108C331.055 611.851 320.693 610.307 311.034 606.586C294.42 600.164 277.293 592.538 260.13 583.922C238.806 573.226 218.128 561.286 198.204 548.166C175.674 533.378 154.335 516.85 134.384 498.733C113.22 479.577 94.1518 458.226 77.5005 435.04C71.414 426.489 65.7994 417.766 60.6565 408.873C62.2135 409.581 63.7883 410.306 65.4337 411.031C103.616 428.034 142.718 436.615 181.112 436.615C204.171 436.638 227.123 433.483 249.32 427.238C306.862 410.855 356.333 373.81 388.247 323.206C399.553 305.425 408.948 285.397 418.042 266.042C437.098 225.349 456.808 183.382 495.097 160.63C518.231 146.897 545.314 141.348 571.985 144.879C598.656 148.409 623.363 160.812 642.127 180.092C637.722 417.224 472.166 545.724 370.766 602.287Z" fill="url(#paint0_linear_0_29)"/>
<defs>
<linearGradient id="paint0_linear_0_29" x1="330" y1="0" x2="330" y2="431.4" gradientUnits="userSpaceOnUse">
<stop stop-color="white"/>
<stop offset="1" stop-color="white" stop-opacity="0"/>
</linearGradient>
</defs>
</svg>
