<svg preserveAspectRatio="none" width="100%" height="100%" overflow="visible" style="display: block;" viewBox="0 0 20 20" fill="none" xmlns="http://www.w3.org/2000/svg">
<g id="fi-rr-analyse 1" clip-path="url(#clip0_0_12)">
<path id="Vector" d="M19.7558 19.7556C19.5933 19.9181 19.38 19.9998 19.1667 19.9998C18.9533 19.9998 18.74 19.9181 18.5775 19.7556L13.6033 14.7815C12.1658 15.9581 10.3308 16.6665 8.33333 16.6665C3.73833 16.6665 0 12.9281 0 8.33312C0 3.73812 3.73833 -0.000210722 8.33333 -0.000210722C9.79833 -0.000210722 11.2392 0.385623 12.5008 1.11479C12.8992 1.34562 13.0358 1.85562 12.8042 2.25396C12.65 2.52062 12.37 2.66979 12.0825 2.66979C11.9408 2.66979 11.7975 2.63396 11.6658 2.55812C10.6583 1.97479 9.50583 1.66646 8.33333 1.66646C4.6575 1.66646 1.66667 4.65729 1.66667 8.33312C1.66667 9.30562 1.88083 10.2281 2.2575 11.0615L5.42333 7.26229C5.725 6.89896 6.17 6.67896 6.64167 6.65729C7.11 6.63646 7.57667 6.81396 7.91167 7.14979L9.51833 8.75646L16.8642 0.283123C17.1658 -0.0660441 17.6925 -0.101877 18.0392 0.197289C18.3875 0.498123 18.4267 1.02479 18.1258 1.37312L10.8092 9.84479C10.5042 10.1981 10.0617 10.4106 9.59417 10.4281C9.13 10.4398 8.67083 10.2656 8.34 9.93479L6.73333 8.32812L3.18083 12.5573C4.40417 14.0473 6.26 14.999 8.33333 14.999C12.0092 14.999 15 12.0081 15 8.33229C15 8.20729 14.9958 8.08312 14.9892 7.95979C14.965 7.49979 15.3183 7.10812 15.7775 7.08312C16.2333 7.04979 16.6292 7.41146 16.6542 7.87062C16.6625 8.02312 16.6667 8.17729 16.6667 8.33146C16.6667 10.3298 15.9583 12.1648 14.7817 13.6015L19.7558 18.5756C20.0817 18.9015 20.0817 19.4281 19.7558 19.754V19.7556Z" fill="var(--fill-0, #332ADE)"/>
</g>
<defs>
<clipPath id="clip0_0_12">
<rect width="20" height="20" fill="white"/>
</clipPath>
</defs>
</svg>
