<svg preserveAspectRatio="none" width="100%" height="100%" overflow="visible" style="display: block;" viewBox="0 0 24 24" fill="none" xmlns="http://www.w3.org/2000/svg">
<g id="fi-rr-calendar-xmark 1" clip-path="url(#clip0_0_14)">
<path id="Vector" d="M15.707 13.707L13.414 16L15.707 18.293C16.098 18.684 16.098 19.316 15.707 19.707C15.512 19.902 15.256 20 15 20C14.744 20 14.488 19.902 14.293 19.707L12 17.414L9.707 19.707C9.512 19.902 9.256 20 9 20C8.744 20 8.488 19.902 8.293 19.707C7.902 19.316 7.902 18.684 8.293 18.293L10.586 16L8.293 13.707C7.902 13.316 7.902 12.684 8.293 12.293C8.684 11.902 9.316 11.902 9.707 12.293L12 14.586L14.293 12.293C14.684 11.902 15.316 11.902 15.707 12.293C16.098 12.684 16.098 13.316 15.707 13.707ZM24 7V19C24 21.757 21.757 24 19 24H5C2.243 24 0 21.757 0 19V7C0 4.243 2.243 2 5 2H6V1C6 0.447 6.448 0 7 0C7.552 0 8 0.447 8 1V2H16V1C16 0.447 16.448 0 17 0C17.552 0 18 0.447 18 1V2H19C21.757 2 24 4.243 24 7ZM2 7V8H22V7C22 5.346 20.654 4 19 4H5C3.346 4 2 5.346 2 7ZM22 19V10H2V19C2 20.654 3.346 22 5 22H19C20.654 22 22 20.654 22 19Z" fill="var(--fill-0, #E7E600)"/>
</g>
<defs>
<clipPath id="clip0_0_14">
<rect width="24" height="24" fill="white"/>
</clipPath>
</defs>
</svg>
