<svg preserveAspectRatio="none" width="100%" height="100%" overflow="visible" style="display: block;" viewBox="0 0 24 24" fill="none" xmlns="http://www.w3.org/2000/svg">
<g id="fi-rr-chart-mixed 1" clip-path="url(#clip0_0_17)">
<path id="Vector" d="M5.00001 8.99C4.12001 8.99 3.24 8.66 2.58 7.99L0.290005 5.71C-0.0999955 5.32 -0.0999955 4.69 0.290005 4.3C0.680005 3.91 1.31 3.91 1.7 4.3L3.98001 6.58C4.54001 7.14 5.44001 7.14 6.00001 6.58L9.56001 3.02C10.9 1.68 13.07 1.68 14.41 3.02L15.97 4.58C16.51 5.12 17.45 5.12 17.99 4.58L22.29 0.290005C22.68 -0.0999955 23.31 -0.0999955 23.7 0.290005C24.09 0.680004 24.09 1.31 23.7 1.7L19.42 5.98C18.13 7.27 15.87 7.27 14.57 5.98L13.01 4.42C12.45 3.86 11.55 3.86 10.99 4.42L7.43001 7.98C6.76001 8.65 5.88001 8.98 5.01001 8.98L5.00001 8.99ZM8.00001 23V14C8.00001 13.45 7.55001 13 7.00001 13C6.45001 13 6.00001 13.45 6.00001 14V23C6.00001 23.55 6.45001 24 7.00001 24C7.55001 24 8.00001 23.55 8.00001 23ZM3 23V12C3 11.45 2.55 11 2 11C1.45 11 1 11.45 1 12V23C1 23.55 1.45 24 2 24C2.55 24 3 23.55 3 23ZM13 23V9C13 8.45 12.55 8 12 8C11.45 8 11 8.45 11 9V23C11 23.55 11.45 24 12 24C12.55 24 13 23.55 13 23ZM18 23V12C18 11.45 17.55 11 17 11C16.45 11 16 11.45 16 12V23C16 23.55 16.45 24 17 24C17.55 24 18 23.55 18 23ZM23 23V8C23 7.45 22.55 7 22 7C21.45 7 21 7.45 21 8V23C21 23.55 21.45 24 22 24C22.55 24 23 23.55 23 23Z" fill="var(--fill-0, #332ADE)"/>
</g>
<defs>
<clipPath id="clip0_0_17">
<rect width="24" height="24" fill="white"/>
</clipPath>
</defs>
</svg>
