<svg preserveAspectRatio="none" width="100%" height="100%" overflow="visible" style="display: block;" viewBox="0 0 20 20" fill="none" xmlns="http://www.w3.org/2000/svg">
<g id="fi-rr-check 1" clip-path="url(#clip0_0_8)">
<path id="Vector" d="M18.5992 3.6925L7.08333 15.2075C7.00591 15.2852 6.9139 15.3469 6.81258 15.389C6.71126 15.4311 6.60263 15.4527 6.49292 15.4527C6.38321 15.4527 6.27457 15.4311 6.17326 15.389C6.07194 15.3469 5.97993 15.2852 5.9025 15.2075L1.44917 10.75C1.37174 10.6723 1.27973 10.6106 1.17841 10.5685C1.07709 10.5264 0.968461 10.5048 0.85875 10.5048C0.749038 10.5048 0.640407 10.5264 0.539088 10.5685C0.437769 10.6106 0.345758 10.6723 0.268333 10.75C0.190602 10.8274 0.128925 10.9194 0.0868406 11.0208C0.0447559 11.1221 0.023092 11.2307 0.023092 11.3404C0.023092 11.4501 0.0447559 11.5588 0.0868406 11.6601C0.128925 11.7614 0.190602 11.8534 0.268333 11.9308L4.72333 16.385C5.19329 16.8541 5.83016 17.1175 6.49417 17.1175C7.15817 17.1175 7.79504 16.8541 8.265 16.385L19.78 4.8725C19.8576 4.79509 19.9192 4.70313 19.9612 4.60189C20.0032 4.50065 20.0248 4.39211 20.0248 4.2825C20.0248 4.17289 20.0032 4.06435 19.9612 3.96311C19.9192 3.86187 19.8576 3.76991 19.78 3.6925C19.7026 3.61477 19.6106 3.55309 19.5092 3.51101C19.4079 3.46892 19.2993 3.44726 19.1896 3.44726C19.0799 3.44726 18.9712 3.46892 18.8699 3.51101C18.7686 3.55309 18.6766 3.61477 18.5992 3.6925Z" fill="var(--fill-0, #332ADE)"/>
</g>
<defs>
<clipPath id="clip0_0_8">
<rect width="20" height="20" fill="white"/>
</clipPath>
</defs>
</svg>
