<svg preserveAspectRatio="none" width="100%" height="100%" overflow="visible" style="display: block;" viewBox="0 0 24 24" fill="none" xmlns="http://www.w3.org/2000/svg">
<g id="fi-rr-empty-set 1" clip-path="url(#clip0_0_12)">
<path id="Vector" d="M23.707 0.293C23.316 -0.098 22.684 -0.098 22.293 0.293L19.034 3.552C17.126 1.96 14.674 1 12 1C5.935 1 1 5.935 1 12C1 14.673 1.961 17.125 3.552 19.034L0.293 22.293C-0.098 22.684 -0.098 23.316 0.293 23.707C0.488 23.902 0.744 24 1 24C1.256 24 1.512 23.902 1.707 23.707L4.966 20.448C6.874 22.04 9.326 23 12 23C18.065 23 23 18.065 23 12C23 9.327 22.039 6.875 20.448 4.966L23.707 1.707C24.098 1.316 24.098 0.684 23.707 0.293ZM3 12C3 7.038 7.038 3 12 3C14.122 3 16.071 3.742 17.611 4.975L4.975 17.611C3.742 16.071 3 14.122 3 12ZM21 12C21 16.963 16.962 21 12 21C9.878 21 7.929 20.258 6.389 19.025L19.025 6.389C20.258 7.929 21 9.878 21 12Z" fill="var(--fill-0, #E7E600)"/>
</g>
<defs>
<clipPath id="clip0_0_12">
<rect width="24" height="24" fill="white"/>
</clipPath>
</defs>
</svg>
