<svg preserveAspectRatio="none" width="100%" height="100%" overflow="visible" style="display: block;" viewBox="0 0 20 20" fill="none" xmlns="http://www.w3.org/2000/svg">
<g id="fi-rr-filter-list 1">
<path id="Vector" d="M15 4.93333C15 3.13167 13.535 1.66667 11.7333 1.66667H3.26667C1.465 1.66667 0 3.13167 0 4.93333C0 5.7125 0.279167 6.4675 0.786667 7.05917L5 11.975V15C5 15.2625 5.12333 15.5092 5.33333 15.6667L8.66667 18.1667C8.81417 18.2767 8.99 18.3333 9.16667 18.3333C9.29333 18.3333 9.42167 18.3042 9.53917 18.2458C9.82167 18.105 10 17.8158 10 17.5V11.975L14.2133 7.05917C14.7208 6.4675 15 5.7125 15 4.93333ZM12.9483 5.975L8.53417 11.125C8.405 11.2758 8.33333 11.4683 8.33333 11.6675V15.8342L6.66667 14.5842V11.6675C6.66667 11.4683 6.59583 11.2758 6.46583 11.125L2.05167 5.97417C1.80333 5.68417 1.66667 5.31417 1.66667 4.9325C1.66667 4.05 2.38417 3.3325 3.26667 3.3325H11.7333C12.6158 3.3325 13.3333 4.05 13.3333 4.9325C13.3333 5.31417 13.1967 5.685 12.9483 5.975ZM20 16.6675C20 17.1275 19.6267 17.5008 19.1667 17.5008H12.5C12.04 17.5008 11.6667 17.1275 11.6667 16.6675C11.6667 16.2075 12.04 15.8342 12.5 15.8342H19.1667C19.6267 15.8342 20 16.2075 20 16.6675ZM20 13.3342C20 13.7942 19.6267 14.1675 19.1667 14.1675H12.5C12.04 14.1675 11.6667 13.7942 11.6667 13.3342C11.6667 12.8742 12.04 12.5008 12.5 12.5008H19.1667C19.6267 12.5008 20 12.8742 20 13.3342ZM15 9.1675H19.1667C19.6267 9.1675 20 9.54083 20 10.0008C20 10.4608 19.6267 10.8342 19.1667 10.8342H15C14.54 10.8342 14.1667 10.4608 14.1667 10.0008C14.1667 9.54083 14.54 9.1675 15 9.1675Z" fill="var(--fill-0, #332ADE)"/>
</g>
</svg>
