<svg preserveAspectRatio="none" width="100%" height="100%" overflow="visible" style="display: block;" viewBox="0 0 24 24" fill="none" xmlns="http://www.w3.org/2000/svg">
<path id="Vector" d="M17 0C13.14 0 10 3.14 10 7C10 10.86 13.14 14 17 14C20.86 14 24 10.86 24 7C24 3.14 20.86 0 17 0ZM17 12C14.243 12 12 9.757 12 7C12 4.243 14.243 2 17 2C19.757 2 22 4.243 22 7C22 9.757 19.757 12 17 12ZM19.707 5.707L18.414 7L19.707 8.293C20.098 8.684 20.098 9.316 19.707 9.707C19.512 9.902 19.256 10 19 10C18.744 10 18.488 9.902 18.293 9.707L17 8.414L15.707 9.707C15.512 9.902 15.256 10 15 10C14.744 10 14.488 9.902 14.293 9.707C13.902 9.316 13.902 8.684 14.293 8.293L15.586 7L14.293 5.707C13.902 5.316 13.902 4.684 14.293 4.293C14.684 3.902 15.316 3.902 15.707 4.293L17 5.586L18.293 4.293C18.684 3.902 19.316 3.902 19.707 4.293C20.098 4.684 20.098 5.316 19.707 5.707ZM14 16V23C14 23.379 13.786 23.725 13.447 23.895C13.305 23.966 13.152 24 13 24C12.788 24 12.577 23.932 12.4 23.8L8.4 20.8C8.148 20.612 8 20.315 8 20V14.38L0.984 6.488C0.349 5.773 0 4.854 0 3.898C0 1.749 1.749 0 3.898 0H9C9.552 0 10 0.448 10 1C10 1.552 9.552 2 9 2H3.898C2.852 2 2 2.852 2 3.898C2 4.364 2.17 4.812 2.479 5.16L9.747 13.336C9.91 13.519 9.999 13.755 9.999 14.001V19.501L11.999 21.001V16.001C11.999 15.449 12.447 15.001 12.999 15.001C13.551 15.001 13.999 15.449 13.999 16.001L14 16Z" fill="var(--fill-0, #332ADE)"/>
</svg>
