<svg preserveAspectRatio="none" width="100%" height="100%" overflow="visible" style="display: block;" viewBox="0 0 20 20" fill="none" xmlns="http://www.w3.org/2000/svg">
<g id="fi-rr-growth-chart-invest 1" clip-path="url(#clip0_0_4)">
<path id="Vector" d="M20 1.66667V5C20 5.46 19.6275 5.83333 19.1666 5.83333C18.7058 5.83333 18.3333 5.46 18.3333 5V2.845L14.9475 6.23C13.8275 7.35 12.005 7.35083 10.885 6.23L8.76913 4.115C8.29829 3.64417 7.53329 3.64583 7.06329 4.115L1.42246 9.75583C1.25996 9.91833 1.04663 10 0.833292 10C0.619958 10 0.406625 9.91833 0.244125 9.75583C-0.0817083 9.43 -0.0817083 8.90333 0.244125 8.5775L5.88496 2.93667C7.00496 1.81667 8.82746 1.81583 9.94746 2.93667L12.0633 5.05167C12.5341 5.52333 13.2991 5.52083 13.7691 5.05167L17.1541 1.66667H14.9991C14.5383 1.66667 14.1658 1.29333 14.1658 0.833333C14.1658 0.373333 14.5383 0 14.9991 0H18.3325C19.2516 0 20 0.7475 20 1.66667ZM18.0708 13.5558L15.5375 13.1342C15.2258 13.0825 15 12.8158 15 12.5C15 12.04 15.3733 11.6667 15.8333 11.6667H17.7233C18.02 11.6667 18.2966 11.8258 18.4458 12.0842C18.6741 12.4825 19.1833 12.62 19.5841 12.3875C19.9825 12.1575 20.1191 11.6475 19.8875 11.2492C19.4425 10.4792 18.6125 10 17.7225 10H17.4991V9.16667C17.4991 8.70667 17.1266 8.33333 16.6658 8.33333C16.205 8.33333 15.8325 8.70667 15.8325 9.16667V10C14.4541 10 13.3325 11.1217 13.3325 12.5C13.3325 13.6325 14.1441 14.5917 15.2616 14.7775L17.795 15.1992C18.1066 15.2508 18.3325 15.5175 18.3325 15.8333C18.3325 16.2933 17.9591 16.6667 17.4991 16.6667H15.6091C15.3125 16.6667 15.0358 16.5075 14.8866 16.2492C14.6575 15.85 14.1466 15.7117 13.7483 15.9458C13.35 16.1758 13.2133 16.6858 13.445 17.0842C13.89 17.855 14.72 18.3333 15.61 18.3333H15.8333V19.1667C15.8333 19.6275 16.2058 20 16.6666 20C17.1275 20 17.5 19.6275 17.5 19.1667V18.3333C18.8783 18.3333 20 17.2117 20 15.8333C20 14.7008 19.1883 13.7417 18.0708 13.5558ZM1.66663 11.6667C1.20579 11.6667 0.833292 12.0392 0.833292 12.5V19.1667C0.833292 19.6275 1.20579 20 1.66663 20C2.12746 20 2.49996 19.6275 2.49996 19.1667V12.5C2.49996 12.0392 2.12746 11.6667 1.66663 11.6667ZM5.83329 7.91667C5.37246 7.91667 4.99996 8.29 4.99996 8.75V19.1667C4.99996 19.6275 5.37246 20 5.83329 20C6.29413 20 6.66663 19.6275 6.66663 19.1667V8.75C6.66663 8.29 6.29413 7.91667 5.83329 7.91667ZM9.99996 7.91667C9.53913 7.91667 9.16663 8.29 9.16663 8.75V19.1667C9.16663 19.6275 9.53913 20 9.99996 20C10.4608 20 10.8333 19.6275 10.8333 19.1667V8.75C10.8333 8.29 10.4608 7.91667 9.99996 7.91667Z" fill="var(--fill-0, #332ADE)"/>
</g>
<defs>
<clipPath id="clip0_0_4">
<rect width="20" height="20" fill="white"/>
</clipPath>
</defs>
</svg>
