<svg preserveAspectRatio="none" width="100%" height="100%" overflow="visible" style="display: block;" viewBox="0 0 24 24" fill="none" xmlns="http://www.w3.org/2000/svg">
<g id="fi-rr-issue-loupe 1" clip-path="url(#clip0_0_10)">
<path id="Vector" d="M23.707 22.293L17.744 16.33C19.156 14.605 20.006 12.403 20.006 10.006C20.006 4.492 15.52 0.006 10.006 0.006C4.492 0.006 0.006 4.492 0.006 10.006C0.006 15.52 4.492 20.006 10.006 20.006C12.404 20.006 14.606 19.156 16.33 17.744L22.293 23.707C22.488 23.902 22.744 24 23 24C23.256 24 23.512 23.902 23.707 23.707C24.098 23.316 24.098 22.684 23.707 22.293ZM2.006 10.006C2.006 5.595 5.595 2.006 10.006 2.006C14.417 2.006 18.006 5.595 18.006 10.006C18.006 14.417 14.417 18.006 10.006 18.006C5.595 18.006 2.006 14.417 2.006 10.006ZM11.5 14.5C11.5 15.328 10.828 16 10 16C9.172 16 8.5 15.328 8.5 14.5C8.5 13.672 9.172 13 10 13C10.828 13 11.5 13.672 11.5 14.5ZM13 7C13 8.125 12.379 9.146 11.379 9.665C11.205 9.755 11.075 9.952 11.024 10.203C11.008 10.277 11.001 10.353 11.001 10.43V11.001C11.001 11.553 10.554 12.001 10.001 12.001C9.448 12.001 9.001 11.553 9.001 11.001V10.43C9.001 10.217 9.022 10.004 9.066 9.797C9.24 8.955 9.748 8.259 10.459 7.89C10.794 7.717 11.001 7.376 11.001 7.001C11.001 6.45 10.553 6.001 10.001 6.001C9.449 6.001 9.001 6.45 9.001 7.001C9.001 7.552 8.554 8.001 8.001 8.001C7.448 8.001 7.001 7.553 7.001 7.001C7.001 5.347 8.347 4.001 10.001 4.001C11.655 4.001 13.001 5.347 13.001 7.001L13 7Z" fill="var(--fill-0, #E7E600)"/>
</g>
<defs>
<clipPath id="clip0_0_10">
<rect width="24" height="24" fill="white"/>
</clipPath>
</defs>
</svg>
