<svg preserveAspectRatio="none" width="100%" height="100%" overflow="visible" style="display: block;" viewBox="0 0 24 24" fill="none" xmlns="http://www.w3.org/2000/svg">
<g id="fi-rr-master-plan-integrate 1" clip-path="url(#clip0_0_8)">
<path id="Vector" d="M24 18.5V20.5C24 22.43 22.43 24 20.5 24H3.5C1.57 24 0 22.43 0 20.5V18.5C0 16.57 1.57 15 3.5 15H5.5C6.053 15 6.5 15.447 6.5 16C6.5 16.553 6.053 17 5.5 17H3.5C2.673 17 2 17.673 2 18.5V20.5C2 21.327 2.673 22 3.5 22H20.5C21.327 22 22 21.327 22 20.5V18.5C22 17.673 21.327 17 20.5 17H18.5C17.947 17 17.5 16.553 17.5 16C17.5 15.447 17.947 15 18.5 15H20.5C22.43 15 24 16.57 24 18.5ZM24 3.5V4.5C24 6.43 22.43 8 20.5 8H20V9C20 10.654 18.654 12 17 12H13V15.395L14.295 14.101C14.686 13.71 15.318 13.71 15.709 14.101C16.1 14.492 16.1 15.124 15.709 15.515L13.234 17.991C12.554 18.67 11.45 18.671 10.77 17.991L8.294 15.515C7.903 15.124 7.903 14.492 8.294 14.101C8.685 13.71 9.317 13.71 9.708 14.101L11 15.393V11.999H7C5.346 11.999 4 10.653 4 8.999V7.999H3.5C1.57 7.999 0 6.429 0 4.499V3.499C0 1.57 1.57 0 3.5 0H6.5C8.43 0 10 1.57 10 3.5V4.5C10 6.43 8.43 8 6.5 8H6V9C6 9.551 6.448 10 7 10H17C17.552 10 18 9.551 18 9V8H17.5C15.57 8 14 6.43 14 4.5V3.5C14 1.57 15.57 0 17.5 0H20.5C22.43 0 24 1.57 24 3.5ZM6.5 6C7.327 6 8 5.327 8 4.5V3.5C8 2.673 7.327 2 6.5 2H3.5C2.673 2 2 2.673 2 3.5V4.5C2 5.327 2.673 6 3.5 6H6.5ZM22 3.5C22 2.673 21.327 2 20.5 2H17.5C16.673 2 16 2.673 16 3.5V4.5C16 5.327 16.673 6 17.5 6H20.5C21.327 6 22 5.327 22 4.5V3.5Z" fill="var(--fill-0, #332ADE)"/>
</g>
<defs>
<clipPath id="clip0_0_8">
<rect width="24" height="24" fill="white"/>
</clipPath>
</defs>
</svg>
