<svg preserveAspectRatio="none" width="100%" height="100%" overflow="visible" style="display: block;" viewBox="0 0 24 24" fill="none" xmlns="http://www.w3.org/2000/svg">
<g id="fi-rr-remote-access 1" clip-path="url(#clip0_0_6)">
<path id="Vector" d="M20.5 11H15.5C13.57 11 12 12.57 12 14.5V16.5C12 18.43 13.57 20 15.5 20H17V22H15.5C14.947 22 14.5 22.447 14.5 23C14.5 23.553 14.947 24 15.5 24H20.5C21.053 24 21.5 23.553 21.5 23C21.5 22.447 21.053 22 20.5 22H19V20H20.5C22.43 20 24 18.43 24 16.5V14.5C24 12.57 22.43 11 20.5 11ZM22 16.5C22 17.327 21.327 18 20.5 18H15.5C14.673 18 14 17.327 14 16.5V14.5C14 13.673 14.673 13 15.5 13H20.5C21.327 13 22 13.673 22 14.5V16.5ZM8.5 9C10.43 9 12 7.43 12 5.5V3.5C12 1.57 10.43 0 8.5 0H3.5C1.57 0 0 1.57 0 3.5V5.5C0 7.43 1.57 9 3.5 9H5V11H3.5C2.947 11 2.5 11.447 2.5 12C2.5 12.553 2.947 13 3.5 13H8.5C9.053 13 9.5 12.553 9.5 12C9.5 11.447 9.053 11 8.5 11H7V9H8.5ZM2 5.5V3.5C2 2.673 2.673 2 3.5 2H8.5C9.327 2 10 2.673 10 3.5V5.5C10 6.327 9.327 7 8.5 7H3.5C2.673 7 2 6.327 2 5.5ZM8.437 18.639C9.188 19.39 9.188 20.611 8.437 21.362L6.091 23.708C5.7 24.099 5.068 24.099 4.677 23.708C4.286 23.317 4.286 22.685 4.677 22.294L5.97 21.001H4.499C2.018 21.001 -0.001 18.982 -0.001 16.501V15.001C-0.001 14.448 0.446 14.001 0.999 14.001C1.552 14.001 1.999 14.448 1.999 15.001V16.501C1.999 17.88 3.12 19.001 4.499 19.001H5.97L4.677 17.708C4.286 17.317 4.286 16.685 4.677 16.294C5.068 15.903 5.7 15.903 6.091 16.294L8.437 18.639ZM24 7.5V9C24 9.553 23.553 10 23 10C22.447 10 22 9.553 22 9V7.5C22 6.121 20.879 5 19.5 5H18.029L19.322 6.293C19.713 6.684 19.713 7.316 19.322 7.707C18.931 8.098 18.299 8.098 17.908 7.707L15.562 5.361C14.811 4.61 14.811 3.389 15.562 2.638L17.908 0.292C18.299 -0.099 18.931 -0.099 19.322 0.292C19.713 0.683 19.713 1.315 19.322 1.706L18.029 2.999H19.5C21.981 2.999 24 5.019 24 7.5Z" fill="var(--fill-0, #332ADE)"/>
</g>
<defs>
<clipPath id="clip0_0_6">
<rect width="24" height="24" fill="white"/>
</clipPath>
</defs>
</svg>
