<svg preserveAspectRatio="none" width="100%" height="100%" overflow="visible" style="display: block;" viewBox="0 0 24 24" fill="none" xmlns="http://www.w3.org/2000/svg">
<g id="fi-rr-rocket-lunch 1" clip-path="url(#clip0_0_25)">
<path id="Vector" d="M1.879 17.878C1.01017 19.0776 0.386594 20.4369 0.0439996 21.878C-0.0214422 22.1649 -0.0130099 22.4637 0.0685071 22.7465C0.150024 23.0292 0.301959 23.2867 0.510088 23.4947C0.718217 23.7027 0.975732 23.8545 1.25852 23.9359C1.54131 24.0173 1.84013 24.0256 2.127 23.96C3.56585 23.6169 4.92301 22.9937 6.121 22.126C6.68432 21.5635 7.00111 20.8002 7.00167 20.0041C7.00223 19.208 6.68652 18.4443 6.124 17.881C5.56148 17.3177 4.79821 17.0009 4.00212 17.0003C3.20603 16.9998 2.44232 17.3155 1.879 17.878ZM4.707 20.707C3.90101 21.2232 3.02553 21.6219 2.107 21.891C2.37648 20.9726 2.77513 20.0972 3.291 19.291C3.4796 19.1088 3.7322 19.008 3.9944 19.0103C4.2566 19.0126 4.50741 19.1178 4.69282 19.3032C4.87823 19.4886 4.9834 19.7394 4.98567 20.0016C4.98795 20.2638 4.88716 20.5164 4.705 20.705L4.707 20.707ZM18 8.5C18 9.16304 17.7366 9.79893 17.2678 10.2678C16.7989 10.7366 16.163 11 15.5 11C14.837 11 14.2011 10.7366 13.7322 10.2678C13.2634 9.79893 13 9.16304 13 8.5C13 7.83696 13.2634 7.20107 13.7322 6.73223C14.2011 6.26339 14.837 6 15.5 6C16.163 6 16.7989 6.26339 17.2678 6.73223C17.7366 7.20107 18 7.83696 18 8.5ZM20.972 -3.57595e-07C18.5922 -0.014147 16.2412 0.520327 14.1015 1.56193C11.9618 2.60353 10.0908 4.12424 8.634 6.006C7.04514 6.06093 5.48676 6.4576 4.065 7.169C2.41622 7.92823 1.07024 9.21927 0.243 10.835C0.0488691 11.2858 -0.0299304 11.7778 0.0137166 12.2666C0.0573636 12.7555 0.222083 13.2258 0.493 13.635C0.766502 14.0543 1.14029 14.3987 1.58049 14.637C2.0207 14.8754 2.51341 15.0001 3.014 15H5.5C6.42688 15.0045 7.31452 15.3747 7.96994 16.0301C8.62535 16.6855 8.99553 17.5731 9 18.5V20.986C8.99965 21.4864 9.1241 21.979 9.36209 22.4192C9.60008 22.8594 9.9441 23.2333 10.363 23.507C10.7722 23.7779 11.2425 23.9426 11.7314 23.9863C12.2202 24.0299 12.7122 23.9511 13.163 23.757C14.7787 22.9298 16.0698 21.5838 16.829 19.935C17.5404 18.5132 17.9371 16.9549 17.992 15.366C19.8768 13.9054 21.3993 12.0299 22.4413 9.88521C23.4833 7.7405 24.0167 5.38438 24 3C23.9988 2.60401 23.9195 2.21214 23.7666 1.84687C23.6136 1.4816 23.3901 1.1501 23.1088 0.871395C22.8275 0.592688 22.4939 0.372248 22.1273 0.222716C21.7606 0.0731825 21.368 -0.00250257 20.972 -3.57595e-07ZM4.346 13H3.014C2.8449 13.0013 2.67823 12.9597 2.52957 12.8791C2.38092 12.7984 2.25514 12.6814 2.164 12.539C2.07446 12.4067 2.01973 12.254 2.00488 12.0949C1.99002 11.9358 2.01551 11.7756 2.079 11.629C2.72335 10.4481 3.73564 9.50991 4.962 8.957C5.59564 8.6393 6.26461 8.39762 6.955 8.237C5.96103 9.75335 5.08864 11.346 4.346 13ZM15.046 19.038C14.4931 20.264 13.5553 21.2762 12.375 21.921C12.2283 21.9846 12.0678 22.0101 11.9086 21.9953C11.7494 21.9804 11.5965 21.9256 11.464 21.836C11.3216 21.7449 11.2046 21.6191 11.1239 21.4704C11.0433 21.3218 11.0017 21.1551 11.003 20.986V19.654C12.657 18.9114 14.2497 18.039 15.766 17.045C15.6044 17.7355 15.3617 18.4045 15.043 19.038H15.046ZM15.181 15.018C13.8278 15.9579 12.3993 16.7843 10.91 17.489C10.7066 16.3971 10.1774 15.3923 9.39206 14.6069C8.60668 13.8216 7.60192 13.2924 6.51 13.089C7.21518 11.6011 8.04199 10.1739 8.982 8.822C12.35 4.124 15.84 2.147 21 2C21.2604 1.9999 21.5106 2.1014 21.6974 2.28293C21.8841 2.46445 21.9927 2.71167 22 2.972C21.853 8.16 19.876 11.65 15.178 15.018H15.181Z" fill="var(--fill-0, #332ADE)"/>
</g>
<defs>
<clipPath id="clip0_0_25">
<rect width="24" height="24" fill="white"/>
</clipPath>
</defs>
</svg>
