<svg xmlns="http://www.w3.org/2000/svg" viewBox="0 0 760 340" width="760" height="340">
  <defs>
    <linearGradient id="g" x1="67.10100716628344%" y1="3.0153689607045777%" x2="32.89899283371656%" y2="96.98463103929542%">
      <stop offset="0%" stop-color="#18137b"/>
      <stop offset="100%" stop-color="#332ade"/>
    </linearGradient>
  </defs>
  <rect width="760" height="340" fill="url(#g)"/>
  <g transform="translate(-120 40) rotate(18 229 218)">
    <path d="M457.63 101.593C457.315 94.4102 456.495 87.2591 455.174 80.1924C447.316 35.0319 409.058 1.31523 364.219 0C362.401 0 360.658 0 358.681 0C332.947 0.917575 308.123 9.76957 287.604 25.3459C262.532 44.4352 247.356 70.2482 237.043 94.07C217.963 130.38 178.931 154.128 136.694 154.128C122.664 154.156 108.754 151.546 95.6856 146.433C89.5553 144.059 83.6504 141.138 78.0421 137.706L74.6901 135.592C66.0955 130.159 57.2553 124.529 45.714 124.283C33.8736 124.088 22.4106 128.453 13.6929 136.477C8.1403 141.731 4.22206 148.48 2.40934 155.911C-1.54419 171.46 0.137901 188.816 2.01644 203.849C4.08728 220.161 7.91577 236.202 13.435 251.689C20.8275 272.203 31.0031 291.601 43.6758 309.338C55.7429 326.161 69.5549 341.657 84.8809 355.568C99.2028 368.59 114.519 380.471 130.69 391.104C144.912 400.484 159.671 409.021 174.891 416.671C187.169 422.817 199.447 428.287 211.308 432.884C219.688 436.131 228.682 437.484 237.645 436.846C246.608 436.209 255.32 433.597 263.158 429.196C312 401.921 352.702 368.425 384.121 329.632C436.684 264.927 461.375 188.201 457.63 101.593ZM12.3914 180.802C12.0534 173.461 12.7184 166.108 14.3681 158.947C15.5961 153.807 18.2824 149.133 22.1033 145.487C28.4695 139.615 36.8503 136.424 45.5053 136.575C53.6333 136.747 60.7055 141.234 68.1828 145.979C69.3369 146.704 70.4911 147.441 71.6452 148.154C77.887 151.982 84.4621 155.236 91.2901 157.877C105.761 163.567 121.171 166.486 136.719 166.482C167.919 166.406 198.001 154.847 221.241 134.006C213.444 151.35 203.033 168.288 186.641 182.535C166.983 199.524 142.786 210.378 117.037 213.756L114.888 214.051C110.154 214.557 105.395 214.812 100.634 214.813C68.0104 214.899 36.5347 202.767 12.3914 180.802ZM13.7297 197.887C38.7275 216.901 69.2764 227.159 100.67 227.081C106.671 227.076 112.665 226.706 118.621 225.974L124.686 225.175V225.016C150.579 220.48 174.763 209.011 194.671 191.827C219.583 170.181 231.616 143.483 240.91 117.843C243.047 111.955 245.429 105.735 248.179 99.4047C249.931 96.0121 251.531 92.5253 252.98 88.9442C262.421 69.6828 275.534 50.0895 295.044 35.2286C313.539 21.1959 335.907 13.2162 359.099 12.378C360.683 12.378 362.279 12.378 363.875 12.378C402.907 13.5211 436.229 42.9602 443.093 82.4418C444.282 88.9138 445.02 95.4607 445.303 102.035V102.195C445.389 104.371 445.45 106.509 445.512 108.66C430.36 96.5613 411.89 89.3649 392.555 88.0278C373.221 86.6907 353.937 91.2761 337.268 101.175C307.457 118.924 292.969 149.851 278.948 179.757C272.526 193.462 266.461 206.406 259.033 218.108C215.495 286.66 129.659 309.83 50.306 274.454C44.1372 271.762 38.1128 268.751 32.2572 265.431C29.5684 259.593 27.1128 253.68 24.9887 247.706C19.7647 233.064 16.142 217.897 14.184 202.472C14.0366 200.874 13.9016 199.387 13.7297 197.887ZM257.289 418.441C251.025 421.961 244.062 424.053 236.897 424.57C229.732 425.086 222.542 424.013 215.838 421.428C204.309 416.966 192.424 411.668 180.515 405.682C165.717 398.25 151.368 389.956 137.541 380.84C121.907 370.566 107.099 359.084 93.2546 346.497C78.5679 333.188 65.3356 318.354 53.7807 302.246C49.557 296.305 45.6608 290.245 42.092 284.066C43.1724 284.558 44.2652 285.062 45.407 285.566C71.903 297.378 99.0375 303.34 125.681 303.34C141.682 303.356 157.609 301.164 173.013 296.825C212.944 285.443 247.273 259.706 269.42 224.549C277.266 212.195 283.785 198.281 290.096 184.833C303.32 156.562 316.997 127.406 343.567 111.598C359.621 102.057 378.415 98.2023 396.923 100.655C415.431 103.108 432.576 111.725 445.597 125.119C442.54 289.868 327.655 379.144 257.289 418.441Z" fill="#ffffff" opacity="0.14" transform="scale(1.4)"/>
  </g>
  <circle cx="170" cy="200" r="10" fill="#e7e600"/>
  <circle cx="194" cy="200" r="10" fill="none" stroke="#e7e600" stroke-width="2"/>
</svg>