<svg width="160" height="40" viewBox="0 0 160 40" fill="none" xmlns="http://www.w3.org/2000/svg">
<g clip-path="url(#clip0_4048_7507)">
<path fill-rule="evenodd" clip-rule="evenodd" d="M137.965 0.728935C134.803 1.49162 132.254 2.9559 129.773 5.43391C126.062 9.14115 124.356 13.5006 124.713 18.3687C125.033 22.7484 126.622 26.1622 129.81 29.3169C132.265 31.7481 135.385 33.4021 138.86 34.1154L141.177 34.5912V36.3108C141.177 38.554 141.842 39.5069 143.408 39.5069C144.422 39.5069 144.789 39.1976 150.793 33.2726C155.898 28.2357 157.281 26.7055 158 25.3051C160.084 20.5627 160.426 17.7195 159.17 12.2249C157.215 6.55719 152.456 2.1722 146.667 0.704556C144.582 0.176113 140.206 0.188163 137.965 0.728935ZM133.419 16.3129C133.931 12.5855 136.884 9.4754 140.652 8.69366C144.602 7.87438 148.826 9.97919 150.645 13.6724C152.305 17.0445 151.439 21.2844 148.577 23.7969C146.401 25.7072 144.997 26.0577 139.515 26.0577C135.722 26.0577 134.717 25.977 134.446 25.6509C134.037 25.1586 134.26 24.341 134.982 23.689C135.503 23.2185 135.497 23.179 134.707 21.9358C133.737 20.4113 133.186 18.005 133.419 16.3129Z" fill="#B80307"/>
<path fill-rule="evenodd" clip-rule="evenodd" d="M6.7225 5.92167C4.66627 6.38308 2.77332 7.23414 1.49332 8.93627C1.49332 8.93627 0.426651 10.0001 0.213318 13.4044C0.213318 16.5246 0.862107 16.7772 1.71082 17.8363C2.89217 19.3109 5.42539 20.5911 9.04417 21.5424C10.7169 21.982 12.5385 22.532 13.092 22.7649C14.4702 23.3446 15.3164 24.4906 15.3164 25.7778C15.3164 29.1841 10.3536 30.1896 5.36613 27.7937C4.11735 27.1938 2.49492 26.2437 1.76111 25.6819L0.426651 24.6606V27.3017C0.426651 29.8641 0.449687 29.9585 1.19923 30.4861C4.0634 32.5009 7.51841 33.4598 11.2464 33.274C15.2097 33.0765 17.6294 31.7929 19.108 29.1036C19.8258 27.7982 19.9365 27.3023 19.9435 25.3575C19.9505 23.4765 19.839 22.9153 19.2496 21.8682C17.9368 19.5359 16.7287 18.9052 9.30179 16.6763C6.19152 15.7429 5.20263 14.8951 5.20263 13.1627C5.20263 12.2114 5.3768 11.8186 6.13251 11.0649C7.26497 9.93542 8.92841 9.60789 11.1726 10.0724C12.9071 10.4316 16.0811 11.8915 17.5639 13.0116L18.5472 13.7547L18.6295 11.4541C18.6748 10.1884 18.6453 8.97967 18.5635 8.76784C18.332 8.16601 14.5267 6.48542 12.3584 6.02729C10.1808 5.56725 8.44692 5.53474 6.7225 5.92167ZM106.06 5.86593C104.727 6.27163 103.031 7.26631 102.117 8.17861C100.702 9.58967 100.172 11.0254 100.172 13.4493C100.172 17.9845 102.001 19.6455 109.104 21.5653C112.763 22.5544 113.647 22.9537 114.463 23.9887C115.558 25.3779 114.986 27.5802 113.289 28.5046C112.622 28.8674 111.746 28.9991 109.993 28.9986C107.757 28.9983 107.445 28.9215 105.085 27.7918C103.699 27.1283 102.019 26.1392 101.352 25.5937L100.139 24.6024L100.22 27.3583L100.3 30.1143L101.661 31.0014C104.047 32.5572 106.58 33.2034 110.274 33.1986C113.029 33.195 113.709 33.1008 114.894 32.5598C116.963 31.6144 117.923 30.7744 118.841 29.1036C119.56 27.796 119.669 27.3056 119.674 25.3575C119.685 20.8598 117.9 19.1719 111.085 17.2341C106.639 15.9699 105.763 15.525 105.115 14.2025C104.65 13.2521 104.634 13.0237 104.975 12.131C105.548 10.6286 106.592 9.99316 108.707 9.85895C110.973 9.71491 113.317 10.4507 116.157 12.1969C117.277 12.8855 118.245 13.4493 118.307 13.4493C118.37 13.4493 118.421 12.3302 118.421 10.9623V8.47533L116.496 7.46635C115.437 6.91133 113.762 6.26716 112.773 6.03461C110.891 5.59218 107.259 5.50082 106.06 5.86593ZM31.6404 6.58993C23.3442 8.91218 19.2827 17.9932 23.0763 25.738C25.8797 31.4609 32.3941 34.4954 38.4821 32.914C43.2764 31.6685 46.9828 28.0994 48.3336 23.4278C48.9928 21.147 48.7966 17.0119 47.9215 14.7595C46.5672 11.2736 43.4073 8.22095 39.8393 6.95223C37.6884 6.18729 33.707 6.01133 31.6404 6.58993ZM52.6814 19.7536V33.3429H60.5406H68.3998L68.1527 32.7125C68.0171 32.3659 67.6454 31.483 67.3271 30.7512L66.7481 29.4202H61.9622H57.1763V17.7923V6.16431H54.9286H52.6814V19.7536ZM65.4515 6.65465C66.2681 8.78495 76.9826 33.0624 77.1055 33.061C77.1925 33.0602 79.8443 27.1028 82.999 19.822C86.1538 12.5415 88.7846 6.49018 88.8452 6.37448C88.9058 6.25904 87.8873 6.16431 86.5813 6.16431H84.2069L80.7351 14.2843C78.8258 18.7503 77.1976 22.4068 77.1179 22.4098C77.0372 22.4129 75.4052 18.759 73.4903 14.2899L70.0087 6.16431H67.636C65.492 6.16431 65.2817 6.21167 65.4515 6.65465ZM92.2935 19.7536V33.3429H94.4008H96.5077V19.7536V6.16431H94.4008H92.2935V19.7536ZM32.9956 10.7337C28.7332 11.9352 25.9921 15.4681 25.9921 19.7612C25.9921 24.2039 29.1069 27.9618 33.5533 28.8837C37.4679 29.6951 41.8536 27.3751 43.6616 23.5362C44.7057 21.3202 44.7006 18.1652 43.6497 15.9295C41.7505 11.8895 37.0423 9.59329 32.9956 10.7337Z" fill="#007893"/>
</g>
<defs>
<clipPath id="clip0_4048_7507">
<rect width="160" height="40" fill="white"/>
</clipPath>
</defs>
</svg>
